{"glyphs":{"0":{"ha":840,"x_min":35,"x_max":806,"o":"m 164 61 q 153 85 164 64 q 143 111 143 107 q 132 155 143 118 q 121 193 121 192 q 108 239 119 203 q 96 292 97 275 q 85 333 94 308 q 75 374 76 358 q 62 452 72 393 q 49 529 51 511 q 39 610 46 569 q 35 660 35 638 q 40 744 35 693 q 54 806 42 768 q 74 853 67 844 q 83 869 83 863 q 117 919 83 882 q 174 967 151 956 q 211 983 188 974 q 275 989 228 989 q 333 985 311 989 q 428 954 425 968 q 426 947 429 949 q 417 944 424 944 q 349 928 406 944 q 276 906 293 913 q 200 857 229 883 q 158 794 158 819 q 150 776 158 785 q 142 733 142 771 l 142 699 q 158 546 143 593 q 167 504 164 532 q 174 476 169 481 q 178 464 178 472 q 208 376 178 456 q 258 253 239 297 q 315 147 279 196 q 379 86 350 99 q 415 78 397 78 q 486 121 453 78 q 596 292 558 218 q 660 426 657 421 q 724 621 703 535 q 729 721 729 651 q 724 814 729 792 q 700 843 719 826 q 657 879 693 849 q 606 918 621 910 q 501 950 542 950 q 492 965 472 950 q 547 969 497 969 q 663 961 650 969 q 700 944 685 950 q 758 900 732 933 q 790 826 783 867 q 799 788 792 815 q 806 693 806 760 l 806 672 q 800 603 806 635 q 772 483 794 572 q 758 429 764 450 q 726 314 746 375 q 649 119 672 168 q 619 54 619 58 q 604 31 619 53 q 589 7 589 8 q 570 -26 589 3 q 551 -57 551 -54 q 544 -67 549 -67 q 536 -78 539 -67 q 510 -115 532 -90 q 471 -150 488 -140 q 401 -174 439 -174 q 388 -172 392 -174 q 353 -167 371 -167 q 274 -128 335 -167 q 241 -95 261 -121 q 207 -42 221 -69 q 203 -33 206 -37 q 199 -24 200 -28 q 196 -17 197 -19 q 194 -11 194 -14 l 193 -10 q 178 24 193 -7 q 164 61 164 51 m 385 756 q 426 764 394 764 q 458 760 458 764 q 469 754 458 754 q 492 728 481 754 q 503 693 503 706 q 497 667 503 682 q 470 633 492 651 q 431 611 449 615 q 415 610 425 610 q 365 633 386 610 q 344 692 344 657 q 385 756 344 718 m 368 518 q 403 533 383 533 q 471 500 444 533 q 489 458 489 476 q 466 395 489 422 q 411 368 443 368 q 359 393 381 368 q 338 454 338 418 q 368 518 338 486 z "},"1":{"ha":399,"x_min":35,"x_max":364,"o":"m 208 969 l 236 1022 l 281 1021 q 338 1011 324 1018 q 353 983 353 1004 l 353 972 q 347 794 350 944 q 344 633 346 728 q 342 468 343 539 q 340 328 340 397 q 342 139 340 210 q 360 -143 346 -79 l 364 -161 l 278 -157 q 235 -156 260 -157 q 198 -155 210 -156 q 183 -154 186 -154 q 174 -142 174 -154 q 196 -18 174 -128 q 218 115 208 43 q 232 210 228 186 q 242 362 236 233 q 250 510 247 490 q 257 719 254 546 q 261 888 260 886 q 260 899 263 889 q 251 899 257 907 q 246 892 249 896 q 194 827 233 876 q 147 768 156 778 q 90 706 129 746 q 39 665 50 665 l 36 667 q 35 669 35 668 q 83 744 35 678 q 147 854 108 778 q 179 915 157 874 q 208 969 201 957 z "},"2":{"ha":757,"x_min":36,"x_max":721,"o":"m 310 1011 q 401 1019 342 1019 q 543 1001 510 1019 q 575 975 554 994 q 604 942 596 956 q 624 890 614 926 q 633 832 633 854 q 624 781 633 815 q 610 744 615 747 q 565 658 597 732 q 549 627 564 657 q 521 572 535 597 q 503 543 507 546 q 438 422 489 532 q 369 257 386 313 q 347 210 367 246 q 276 33 319 157 q 268 -7 268 6 q 271 -19 268 -17 q 289 -26 274 -22 q 363 -32 311 -32 q 431 -26 410 -32 q 519 14 451 -19 q 589 46 586 46 q 599 50 594 46 q 621 60 603 54 q 662 80 622 60 q 714 100 701 100 q 721 97 721 100 q 678 35 721 94 q 594 -81 636 -24 l 553 -137 q 520 -146 549 -144 q 317 -153 492 -147 q 223 -154 293 -153 q 126 -157 153 -156 l 36 -158 l 36 -149 q 51 -101 36 -140 q 72 -53 65 -61 q 146 96 83 -39 q 162 131 153 110 q 176 162 171 151 q 182 174 181 172 q 186 188 186 181 q 197 216 186 192 q 219 266 207 240 q 232 293 232 292 q 304 445 265 365 q 392 620 343 525 q 464 763 440 715 q 501 849 501 831 q 500 854 501 853 q 496 865 496 856 q 484 888 496 874 q 458 910 472 903 q 415 917 444 917 q 360 908 383 917 q 294 881 335 901 q 204 807 254 858 q 136 724 150 750 q 117 692 119 692 q 106 746 106 692 q 107 808 106 782 q 117 908 110 894 q 182 953 124 921 q 310 1011 263 997 m 264 729 q 285 788 264 761 q 335 815 306 815 q 374 801 354 815 q 389 785 386 790 q 392 763 392 779 q 372 711 392 742 q 338 679 356 685 q 324 678 333 678 q 283 693 301 678 q 264 729 264 708 z "},"3":{"ha":740,"x_min":36,"x_max":706,"o":"m 154 951 q 275 957 235 957 q 329 956 310 957 q 521 953 438 953 q 614 950 614 953 q 585 904 614 947 q 554 860 557 861 l 515 799 q 475 736 476 738 q 471 731 471 733 q 487 718 471 724 q 521 713 503 713 q 569 694 533 713 q 624 654 604 676 q 701 492 683 583 q 706 454 706 469 q 705 438 706 449 q 703 409 704 428 q 703 372 703 390 q 690 234 700 285 q 657 122 681 183 q 565 -46 621 32 q 533 -87 554 -64 q 506 -110 511 -110 q 474 -129 504 -110 q 417 -160 436 -156 q 336 -168 399 -165 l 264 -171 l 238 -157 q 140 -65 182 -129 q 83 83 88 13 l 83 99 q 96 147 83 147 q 102 130 99 147 q 108 92 106 113 q 110 69 110 71 q 168 -11 118 33 q 293 -64 225 -64 l 306 -64 q 411 -22 365 -61 q 503 107 458 18 q 560 269 536 172 q 571 336 571 321 q 570 346 571 339 q 569 357 569 353 q 529 453 564 422 q 458 483 493 483 q 418 472 442 483 q 381 447 394 461 q 351 376 351 415 q 352 371 351 375 q 353 364 353 367 l 356 347 l 344 358 q 328 410 328 375 q 331 433 328 417 q 342 493 338 479 q 361 524 347 507 q 395 553 382 547 q 447 558 408 558 q 517 549 492 558 q 547 535 544 538 q 557 531 551 531 q 558 536 560 532 q 550 556 557 540 q 510 608 524 608 q 483 619 506 608 q 424 631 463 631 q 269 585 336 631 q 246 572 253 572 q 242 578 242 572 q 263 631 242 589 q 289 676 276 660 q 314 714 301 692 q 392 819 336 753 q 405 833 394 822 q 419 850 415 844 q 436 875 436 869 q 425 881 436 881 q 381 883 417 881 q 367 884 375 883 q 353 885 358 885 q 220 865 283 885 q 128 814 157 846 q 109 799 121 806 q 92 781 97 792 q 79 760 88 771 q 65 736 71 750 q 43 724 56 713 q 38 756 36 729 q 40 793 38 763 q 43 842 42 824 q 67 942 50 935 q 154 951 76 946 z "},"4":{"ha":875,"x_min":35,"x_max":840,"o":"m 313 290 q 301 271 301 276 q 294 257 301 265 q 288 244 288 249 l 269 200 q 250 150 250 156 q 254 147 250 147 q 328 168 286 147 q 478 207 369 188 q 521 217 519 215 q 525 403 522 218 q 526 476 525 429 q 526 542 526 524 q 526 592 526 565 q 525 621 525 619 l 524 657 l 511 632 q 490 603 497 608 q 483 590 483 596 l 471 568 q 438 508 469 567 q 401 444 407 450 q 393 425 397 440 q 373 387 389 413 q 354 356 357 361 q 313 290 329 307 m 667 982 q 732 1008 724 1008 q 736 1006 736 1008 q 722 978 736 1001 q 668 865 692 928 q 643 707 656 835 q 632 496 632 597 q 635 347 632 469 l 638 244 l 674 246 q 734 253 694 247 q 801 260 774 258 l 840 263 l 839 204 q 828 33 835 44 q 819 31 825 31 q 772 39 810 31 q 660 60 689 60 l 656 60 q 653 36 653 57 q 670 -63 654 14 q 694 -162 686 -140 q 700 -181 697 -169 l 703 -189 q 626 -196 703 -196 q 572 -194 592 -196 l 488 -190 l 488 -171 q 497 -121 488 -150 q 521 29 521 -42 l 521 71 l 463 68 q 172 19 286 61 q 106 -7 122 1 q 69 -35 90 -15 q 39 -51 46 -58 q 35 -36 35 -47 q 60 42 35 -1 q 106 143 83 82 q 150 240 115 169 q 193 319 185 311 q 210 353 201 332 q 252 432 214 365 q 293 504 290 499 q 408 711 299 525 q 427 743 415 722 q 446 776 439 764 q 465 804 453 788 q 490 835 478 821 q 542 894 525 875 q 592 938 560 913 q 667 982 625 963 m 394 369 q 426 386 411 386 q 465 369 442 386 q 490 336 489 351 q 491 331 490 335 q 492 325 492 328 q 467 274 492 294 q 429 264 451 261 q 393 276 408 265 q 375 299 378 286 q 374 314 374 303 q 394 369 374 346 z "},"5":{"ha":822,"x_min":36,"x_max":786,"o":"m 401 751 q 426 742 406 751 q 449 733 446 733 q 497 711 454 733 q 554 679 540 689 q 602 638 574 665 q 643 601 631 611 q 675 568 675 575 q 689 550 675 564 q 734 481 707 532 q 771 394 761 431 q 786 283 786 340 q 783 225 786 261 q 765 110 775 143 q 724 10 738 24 q 706 -26 718 4 q 651 -101 692 -60 q 592 -154 622 -132 q 546 -185 558 -178 q 440 -232 478 -225 q 356 -237 418 -237 q 286 -235 306 -237 q 200 -216 254 -232 q 136 -190 146 -200 q 64 -115 76 -135 q 40 -43 51 -96 q 36 -14 36 -25 q 43 18 36 -7 q 96 97 63 79 q 143 107 107 104 q 167 108 153 108 q 203 99 182 108 q 245 69 225 89 q 268 38 265 50 q 278 15 269 33 q 281 0 289 -1 q 263 14 274 1 q 200 49 232 49 q 181 44 189 49 q 138 -10 138 18 q 150 -46 138 -22 q 176 -81 163 -69 q 240 -103 203 -103 q 281 -100 250 -103 q 468 -24 378 -90 q 617 301 617 86 q 603 416 617 371 q 551 526 590 461 q 498 600 533 557 q 453 647 463 643 q 442 657 446 650 q 410 678 440 664 q 361 694 379 692 q 324 704 340 697 q 268 711 306 711 q 186 706 247 711 q 143 703 164 703 q 129 707 133 703 q 128 715 121 715 q 126 724 133 715 q 121 743 121 729 q 122 775 121 761 q 123 788 122 779 q 124 801 124 796 q 107 938 124 883 q 106 965 100 963 q 322 979 117 972 q 492 981 357 981 q 719 978 717 981 q 731 895 722 976 q 739 793 739 814 q 729 792 736 789 q 708 803 722 794 q 586 872 601 867 q 499 890 576 876 q 407 900 444 900 q 317 893 382 900 q 272 874 289 890 q 254 832 254 854 q 300 790 254 799 q 363 769 340 783 q 376 765 369 765 q 388 758 381 765 q 401 751 396 751 m 178 643 q 189 644 183 643 q 198 645 194 644 q 205 646 201 646 q 211 646 208 646 q 226 642 218 646 q 261 611 246 631 q 276 572 276 592 q 262 539 276 558 q 235 513 247 519 q 215 508 226 508 q 149 538 175 508 q 133 581 133 556 q 146 623 133 604 q 178 643 158 642 m 374 571 q 396 574 390 574 q 433 546 415 574 q 447 514 447 528 q 433 485 447 503 q 399 469 419 469 q 343 489 360 469 q 338 518 338 497 q 349 553 338 536 q 374 571 360 569 m 460 414 q 479 418 468 418 q 521 404 500 418 q 546 371 542 390 q 547 366 546 369 q 547 361 547 363 q 537 331 547 343 q 508 319 526 319 q 497 321 501 319 q 463 335 483 324 q 444 357 443 347 q 442 372 444 367 l 442 374 q 440 376 440 375 q 447 397 440 385 q 460 414 453 410 z "},"6":{"ha":739,"x_min":35,"x_max":704,"o":"m 424 972 q 490 978 446 978 q 614 964 564 978 q 667 946 661 951 q 679 943 669 943 q 688 938 688 943 q 693 933 688 933 q 704 926 704 933 q 626 922 704 922 q 494 911 550 922 q 275 765 349 881 q 250 731 253 732 q 246 721 246 728 q 239 706 246 717 q 225 670 231 696 q 215 608 219 644 q 208 560 211 572 q 199 186 199 518 q 207 22 199 126 q 239 -85 213 -50 q 251 -108 249 -97 q 276 -137 254 -119 q 319 -167 297 -156 q 358 -178 342 -178 q 371 -177 361 -178 q 388 -176 381 -176 q 469 -156 431 -175 q 515 -126 510 -135 q 556 -32 546 -87 q 569 29 560 -8 q 578 143 578 54 q 574 249 578 233 q 568 291 572 253 q 560 336 564 329 q 546 378 558 339 q 529 419 536 408 q 524 435 524 428 q 519 454 524 443 q 508 474 514 465 q 496 492 501 483 l 490 499 q 471 522 488 501 q 378 568 435 565 l 367 568 q 339 560 346 568 q 332 528 332 553 q 333 516 332 525 q 333 501 333 507 q 349 424 335 451 q 433 300 371 374 q 438 292 439 293 q 432 289 435 289 q 408 299 425 289 l 393 308 q 294 415 354 324 q 282 435 289 424 q 272 451 275 446 l 268 457 q 257 483 268 461 q 242 556 242 517 q 265 644 242 608 q 308 683 278 664 q 356 701 338 701 q 411 690 367 701 q 467 672 456 678 q 533 614 506 651 q 618 474 596 528 q 672 326 663 364 q 692 236 686 257 q 704 99 704 182 q 689 -35 704 4 q 638 -132 665 -94 q 554 -214 608 -169 q 493 -243 550 -217 q 361 -260 464 -260 q 229 -240 264 -260 q 209 -231 226 -239 q 182 -217 192 -222 q 64 -92 104 -182 q 49 -40 46 -53 q 43 -8 49 -39 q 35 153 35 25 q 39 278 35 233 q 46 368 46 350 q 61 477 46 403 q 76 553 76 551 q 122 704 82 589 q 213 850 153 790 q 243 885 236 875 q 301 930 256 904 q 382 963 346 956 q 401 967 386 964 q 424 972 417 971 z "},"7":{"ha":760,"x_min":35,"x_max":724,"o":"m 363 979 q 432 980 389 979 q 490 981 475 981 q 614 976 576 981 q 696 971 675 971 q 724 964 724 971 q 701 936 724 958 q 624 847 636 869 q 563 654 590 779 q 551 599 551 604 q 536 538 551 592 q 494 365 524 492 q 463 231 492 351 q 425 61 433 111 q 412 0 421 42 q 396 -76 403 -42 q 386 -135 389 -111 q 374 -182 382 -160 l 111 -182 q 140 -126 114 -167 q 164 -89 164 -90 q 185 -51 164 -87 q 220 13 194 -36 q 256 76 246 61 q 266 100 260 83 q 276 124 272 117 q 290 153 285 136 q 296 170 292 158 q 307 200 300 182 q 318 229 314 218 q 378 408 361 349 q 415 549 403 492 q 422 574 418 567 q 447 645 426 583 q 468 721 467 707 q 474 746 469 726 q 481 774 479 765 q 489 819 489 807 q 479 851 489 833 q 458 878 469 871 q 411 886 446 885 l 396 886 q 274 869 347 886 q 172 838 200 853 q 116 790 157 829 q 65 732 75 750 q 43 717 53 711 q 35 756 35 722 q 36 838 35 799 q 47 961 40 954 q 363 979 58 974 m 278 761 q 289 764 281 764 q 321 751 306 764 q 336 733 336 736 q 344 721 336 729 q 353 678 353 711 q 350 646 353 653 q 333 624 347 639 q 290 601 314 603 q 264 603 264 599 q 260 607 264 607 q 233 624 251 607 q 213 651 215 640 q 208 679 208 667 q 225 729 208 707 q 268 757 242 751 q 278 761 274 757 z "},"8":{"ha":663,"x_min":35,"x_max":628,"o":"m 350 507 q 322 539 328 539 q 318 536 321 539 q 307 511 315 533 q 278 446 286 458 q 271 432 271 436 q 263 413 271 426 q 217 264 235 364 q 209 228 214 253 q 199 185 204 204 q 189 153 194 165 q 188 142 186 151 q 188 129 189 133 q 179 60 179 108 q 188 -14 179 11 q 201 -40 194 -33 q 224 -47 208 -47 q 240 -46 235 -47 q 272 -37 264 -43 q 292 -8 281 -31 q 317 122 317 40 l 317 139 l 317 163 q 325 372 317 372 l 339 279 q 360 158 351 189 q 369 104 367 133 q 391 26 375 65 q 424 -25 407 -12 q 458 -36 439 -36 q 508 -4 500 -36 q 518 67 518 24 q 506 168 518 108 q 499 201 503 176 q 489 247 494 226 q 478 275 483 268 q 472 292 472 286 q 459 328 472 300 q 444 363 446 357 q 399 432 433 394 q 372 471 383 447 q 350 507 360 494 m 378 908 q 332 914 333 914 q 308 910 321 914 q 243 906 296 906 q 171 893 171 906 q 164 881 171 888 q 158 860 158 875 q 172 811 158 832 q 192 781 189 786 q 231 736 196 774 q 256 708 240 726 q 275 688 272 690 l 289 672 l 301 683 q 396 801 333 714 q 426 863 426 846 q 413 893 426 881 q 378 908 400 906 m 535 317 q 544 303 535 313 q 554 289 554 293 q 563 265 554 281 q 588 199 586 219 q 594 171 588 192 q 628 -49 628 92 q 622 -100 628 -78 q 553 -185 606 -151 q 431 -221 500 -218 q 374 -226 424 -221 q 313 -229 349 -229 q 219 -206 276 -229 q 54 -114 83 -150 q 35 -3 35 -87 q 42 68 35 33 q 46 89 43 75 q 52 121 49 103 q 57 150 56 139 q 75 217 63 178 q 105 308 88 257 q 126 371 122 358 q 182 510 169 500 q 189 519 189 514 q 203 543 189 521 q 250 622 250 613 q 213 669 250 632 q 139 735 176 706 q 54 819 75 783 q 44 874 44 838 q 53 924 44 906 q 93 964 69 960 q 175 968 100 965 q 257 974 214 969 q 363 978 300 978 q 475 965 446 976 q 536 900 532 943 q 537 893 536 897 q 538 886 538 889 q 475 754 538 813 q 453 732 453 735 q 425 699 453 729 q 357 624 368 639 q 364 596 347 610 q 398 551 371 589 q 429 508 425 514 q 440 489 440 494 q 449 478 440 485 q 458 468 458 471 q 474 442 458 464 q 490 417 490 419 q 513 367 490 414 q 535 317 535 319 z "},"9":{"ha":739,"x_min":36,"x_max":704,"o":"m 382 888 q 275 893 324 893 q 203 878 203 893 q 197 871 203 871 q 183 861 193 871 q 174 847 174 851 q 167 838 174 842 q 157 801 160 833 q 156 783 156 794 q 169 731 156 768 q 190 683 185 688 q 197 668 197 679 q 251 588 197 650 q 319 537 279 556 q 449 496 360 518 q 497 490 467 490 q 535 494 522 490 q 549 561 542 497 q 554 653 554 606 q 496 847 554 788 q 457 876 475 869 q 382 888 439 882 m 182 965 q 260 968 218 968 q 331 964 325 968 q 337 963 332 963 q 343 965 342 964 q 360 968 349 968 q 408 964 375 968 q 475 958 442 960 q 603 948 585 951 q 638 925 621 944 q 681 843 668 890 q 700 706 694 796 q 704 614 704 640 q 694 519 704 579 q 671 404 679 415 q 664 381 668 401 q 654 358 660 361 q 647 346 647 354 q 606 238 647 328 q 539 111 564 147 q 534 104 538 108 q 529 97 531 100 l 528 94 q 496 49 528 89 q 456 3 464 10 q 429 -24 447 -1 q 313 -128 407 -51 q 239 -177 281 -153 q 178 -206 197 -201 q 153 -210 156 -211 l 167 -200 q 230 -157 186 -190 q 286 -110 274 -124 q 296 -99 290 -106 q 310 -84 301 -93 q 322 -69 318 -75 q 346 -42 346 -43 q 363 -19 346 -39 q 383 18 378 -3 q 415 89 386 28 q 442 149 442 144 q 446 161 442 157 q 472 231 449 164 q 494 303 494 297 q 500 322 494 311 q 525 429 500 324 q 526 436 528 433 q 521 440 524 439 q 508 442 518 440 q 493 443 501 443 q 485 442 489 443 q 479 442 481 442 q 454 449 472 442 q 405 463 444 453 q 361 475 365 472 q 349 476 354 478 l 344 476 q 317 482 338 476 q 294 488 296 488 q 258 503 288 488 q 215 529 228 518 q 153 579 200 542 q 89 642 103 619 q 36 764 36 728 q 38 790 36 781 l 40 829 q 49 867 40 839 q 76 914 60 900 q 182 965 128 960 m 338 778 q 378 783 349 783 q 401 781 397 783 q 440 711 440 756 q 431 682 440 693 q 419 664 418 665 q 404 649 422 661 q 375 639 390 639 q 304 682 335 639 q 296 703 296 697 q 300 724 296 707 q 338 778 314 768 m 318 321 q 329 353 315 339 q 357 367 343 367 q 390 356 371 367 q 418 307 418 338 q 381 264 418 264 q 353 269 365 264 q 318 321 322 282 m 269 188 q 289 190 283 190 q 314 183 303 190 q 335 165 331 174 q 340 138 340 157 q 325 99 340 114 q 294 81 307 81 q 260 100 279 81 q 240 132 240 119 q 251 165 240 144 q 269 188 263 185 m 150 -43 q 143 -19 143 -35 q 153 10 143 -3 q 176 24 163 24 q 206 15 188 24 q 229 -3 224 7 q 236 -24 236 -12 q 207 -67 236 -56 q 196 -68 204 -68 q 150 -43 168 -68 z "},"\u0000":{"ha":347,"x_min":0,"x_max":0,"o":""},"\r":{"ha":347,"x_min":0,"x_max":0,"o":""}," ":{"ha":347,"x_min":0,"x_max":0,"o":""},"!":{"ha":282,"x_min":32,"x_max":249,"o":"m 154 958 q 199 993 192 993 q 213 1001 206 993 q 224 1010 219 1008 q 242 1015 236 1017 q 246 1003 249 1014 q 210 763 215 850 q 157 385 188 540 q 136 256 147 339 q 132 224 135 246 q 127 188 129 203 q 124 164 125 172 q 117 113 117 132 q 115 99 117 101 q 108 97 114 96 q 94 189 100 99 q 81 381 88 307 q 60 724 63 568 q 58 817 58 765 q 64 869 58 857 q 94 903 69 881 q 154 958 99 907 m 35 -25 q 58 24 38 3 q 108 46 79 46 q 144 38 125 46 q 178 -1 164 28 q 193 -43 193 -35 q 181 -69 193 -50 q 158 -101 169 -89 q 108 -122 140 -122 q 96 -118 97 -122 q 85 -114 94 -114 q 60 -92 78 -114 q 43 -62 43 -71 q 39 -51 43 -53 q 35 -25 32 -49 z "},"\"":{"ha":381,"x_min":33,"x_max":346,"o":"m 64 957 l 83 957 l 121 957 l 147 956 l 144 922 q 115 736 144 919 q 104 681 108 694 q 101 664 101 672 q 93 657 101 649 l 86 671 q 51 842 65 739 q 33 954 40 900 l 64 957 m 246 957 q 290 960 276 960 q 346 950 335 960 q 339 915 343 935 q 321 821 328 867 q 289 660 292 660 q 264 769 282 660 q 244 879 256 829 q 232 944 232 931 q 246 957 232 954 z "},"„":{"ha":381,"x_min":33,"x_max":346,"o":"m 64 957 l 83 957 l 121 957 l 147 956 l 144 922 q 115 736 144 919 q 104 681 108 694 q 101 664 101 672 q 93 657 101 649 l 86 671 q 51 842 65 739 q 33 954 40 900 l 64 957 m 246 957 q 290 960 276 960 q 346 950 335 960 q 339 915 343 935 q 321 821 328 867 q 289 660 292 660 q 264 769 282 660 q 244 879 256 829 q 232 944 232 931 q 246 957 232 954 z "},"#":{"ha":788,"x_min":35,"x_max":754,"o":"m 417 378 q 431 424 417 381 q 444 469 444 467 q 433 472 444 472 q 365 464 413 472 q 311 453 317 456 q 278 369 306 451 q 272 353 276 364 q 267 339 267 343 l 272 339 q 364 346 308 339 q 417 378 417 350 m 529 726 q 535 738 529 732 q 540 750 540 743 l 540 758 q 586 675 551 746 l 619 610 l 604 585 q 592 562 593 565 q 596 556 590 558 q 657 553 601 553 l 692 553 q 754 547 754 553 l 751 544 q 738 542 746 542 q 649 522 721 542 q 557 492 576 501 q 542 471 547 488 q 515 418 536 456 q 494 374 494 381 q 500 369 494 369 l 508 369 q 531 373 513 369 q 556 376 549 376 q 561 375 560 376 l 576 378 q 607 381 585 381 l 685 375 l 686 375 q 635 353 686 372 q 531 317 583 335 l 479 300 q 463 292 467 296 q 447 268 458 288 q 408 208 436 249 q 388 179 400 194 q 369 151 376 164 q 353 121 361 139 q 321 75 338 92 q 368 243 325 114 q 375 271 376 269 q 272 244 278 246 l 249 239 l 226 199 q 203 160 219 186 q 183 125 188 133 q 167 99 178 114 q 156 81 157 83 q 149 71 151 71 q 146 79 146 71 q 150 115 146 92 q 161 175 160 164 q 168 213 167 207 l 131 200 q 82 182 110 193 q 42 167 49 167 q 35 179 35 167 q 35 186 35 181 q 36 196 36 192 q 43 269 43 261 q 51 318 47 317 q 54 318 51 318 q 135 325 110 324 q 196 331 186 328 q 210 351 206 335 q 229 433 229 417 q 214 439 229 439 q 171 433 210 439 q 64 403 99 421 l 53 399 q 58 455 51 400 q 68 519 65 510 q 73 528 69 525 q 85 532 76 531 q 100 533 93 533 q 122 534 107 533 q 147 536 136 535 q 235 543 231 543 l 256 544 l 260 569 q 261 583 261 576 q 261 594 261 590 l 263 599 q 267 616 264 600 q 272 650 269 632 q 276 671 275 668 q 285 718 281 682 q 293 756 288 756 q 324 710 296 754 q 367 638 351 667 l 375 622 l 358 588 q 342 550 342 554 q 358 549 349 549 q 476 554 457 549 q 486 566 482 556 q 494 591 490 576 q 500 610 499 606 q 529 726 529 679 z "},"$":{"ha":646,"x_min":33,"x_max":611,"o":"m 364 301 q 358 308 364 308 q 354 306 356 307 q 349 269 351 300 q 338 181 346 239 q 326 76 329 122 q 319 -3 325 56 l 315 -32 l 338 -29 q 426 26 403 -21 q 436 56 436 44 q 432 88 436 64 q 378 268 418 182 q 372 283 375 274 q 366 296 368 292 q 364 301 364 300 m 299 829 l 300 864 l 285 864 q 263 840 263 864 q 267 819 263 831 q 269 810 268 815 q 272 801 271 804 q 274 796 274 797 q 283 775 274 792 l 293 758 l 296 776 q 299 829 299 796 m 268 18 q 272 213 268 57 q 275 413 275 369 l 275 490 l 258 522 q 241 557 251 538 q 219 599 231 576 q 201 631 207 621 q 158 711 172 694 q 149 726 149 721 q 129 771 149 735 q 113 865 113 804 q 124 913 113 897 q 135 933 135 932 q 172 951 135 944 q 244 958 208 958 q 272 956 268 958 q 292 954 278 951 q 301 963 300 956 q 306 1007 303 969 q 314 1065 308 1057 q 367 1072 317 1072 q 414 1068 407 1072 q 421 1044 421 1064 q 418 1019 421 1036 q 411 985 415 1003 q 406 961 407 967 l 403 947 l 444 947 q 532 946 507 947 q 579 938 569 943 q 590 915 589 933 q 603 776 603 815 q 590 736 603 749 l 579 725 l 565 749 q 549 779 557 761 q 532 810 540 797 q 507 836 524 822 q 419 871 465 871 q 396 863 403 871 q 379 742 388 849 q 372 588 372 624 q 380 554 374 572 q 392 536 386 536 q 394 529 394 536 q 408 499 394 525 q 421 471 421 474 q 436 444 421 467 q 457 402 449 425 q 475 361 465 379 q 490 321 482 346 q 507 279 499 296 q 515 257 515 260 q 526 231 515 256 q 585 90 558 165 q 611 -11 611 14 q 601 -53 611 -25 q 583 -87 590 -81 q 564 -96 572 -96 q 549 -100 553 -96 q 489 -111 544 -104 q 403 -118 433 -118 q 314 -128 324 -118 l 308 -185 q 301 -243 303 -242 q 292 -240 299 -246 q 278 -161 278 -231 l 278 -126 l 213 -126 q 40 -119 51 -124 q 38 -99 33 -117 q 40 -24 40 -79 q 46 38 40 38 q 50 33 47 38 q 107 3 53 29 q 197 -28 161 -25 q 228 -31 208 -29 q 251 -33 247 -33 l 269 -35 l 268 18 z "},"%":{"ha":1007,"x_min":36,"x_max":971,"o":"m 778 806 l 786 814 q 806 834 794 822 q 830 860 817 846 q 855 885 843 874 q 875 903 867 896 q 885 911 883 911 q 889 905 889 911 q 885 896 889 899 q 827 826 882 894 q 758 738 772 757 q 682 632 689 640 q 650 589 669 617 q 631 557 631 561 q 613 526 631 554 q 453 300 547 424 q 383 203 408 242 q 310 99 357 164 q 219 -24 232 -8 q 192 -64 192 -58 q 188 -78 192 -71 q 185 -79 186 -79 q 110 -11 178 -79 l 36 63 l 75 104 q 194 226 161 197 q 225 260 199 231 q 268 301 251 289 q 308 340 289 318 q 372 405 331 364 q 446 477 414 446 q 479 508 478 508 q 488 519 482 508 q 528 561 494 532 q 688 715 625 650 q 778 806 738 768 m 311 738 q 277 774 301 758 q 225 790 253 790 q 140 683 144 790 l 140 675 q 175 564 140 608 q 222 547 188 547 q 272 560 250 547 q 300 590 286 568 q 317 631 314 611 q 319 674 319 658 q 311 738 319 721 m 151 842 q 163 847 151 843 q 189 853 175 850 l 203 857 q 222 860 214 860 q 267 853 242 860 q 363 758 308 842 q 393 650 393 718 q 374 560 393 597 q 345 519 364 542 q 318 493 326 496 q 306 483 308 490 q 222 460 296 460 q 188 463 210 460 q 142 476 157 468 q 101 508 128 483 q 61 571 74 535 q 46 664 46 619 q 49 696 46 676 q 74 760 54 724 q 110 811 93 796 q 139 833 133 831 q 151 842 151 839 m 200 719 q 236 729 214 729 q 258 725 250 729 q 278 678 278 714 q 250 614 278 629 q 210 613 232 604 q 186 640 197 618 q 176 678 176 661 q 200 719 176 703 m 849 258 q 792 276 819 275 l 782 276 q 710 243 736 276 q 685 157 685 210 l 685 144 q 732 50 689 82 l 754 33 l 788 35 q 844 53 824 36 q 897 158 897 90 q 894 185 897 165 q 882 231 890 218 q 849 258 874 243 m 719 343 q 751 353 738 353 q 781 351 768 353 q 869 331 850 347 q 888 321 882 321 q 908 306 893 321 q 933 274 922 290 q 971 144 971 221 q 965 101 971 118 q 932 28 954 63 q 896 -7 910 -7 q 889 -11 889 -7 q 851 -32 889 -19 q 788 -44 813 -44 q 782 -44 785 -44 q 778 -43 779 -43 q 671 4 703 -29 q 635 63 653 22 q 617 131 618 104 q 615 174 615 147 q 646 276 615 231 q 719 343 676 321 m 733 119 q 721 154 721 136 q 742 203 721 181 q 792 225 763 225 l 797 225 q 844 167 844 221 q 819 97 844 115 q 790 89 807 89 q 733 119 756 89 z "},"&":{"ha":929,"x_min":36,"x_max":893,"o":"m 307 344 q 303 419 307 392 q 294 447 299 447 q 281 417 292 447 q 260 367 276 404 q 233 303 251 351 q 211 249 226 286 q 193 203 196 211 q 185 121 185 182 q 192 49 185 67 q 197 36 194 43 l 200 29 q 224 -7 200 25 q 310 -65 254 -47 l 311 -65 q 346 -10 322 -65 q 356 1 350 1 q 379 -32 361 1 q 408 -65 397 -65 l 411 -65 q 482 -17 428 -64 q 530 37 501 0 q 558 82 558 74 q 539 122 558 83 q 512 175 531 139 q 483 232 493 211 q 460 285 474 253 q 439 349 447 318 q 407 428 414 428 q 392 357 406 428 q 383 317 388 331 q 367 210 376 293 q 358 86 358 126 q 354 42 358 42 q 340 59 344 42 q 329 132 335 76 q 320 202 326 160 q 310 278 314 244 q 307 344 307 311 m 422 900 q 374 904 414 904 q 326 900 335 904 q 318 888 318 896 q 339 824 318 874 q 361 765 354 788 l 365 749 l 379 769 q 414 833 385 779 q 432 885 432 871 q 422 900 432 896 m 308 986 q 385 992 342 992 q 463 986 428 992 q 539 967 518 978 q 560 932 560 956 q 531 857 560 917 q 475 757 483 764 q 468 747 468 750 q 447 707 468 743 q 426 657 426 671 q 442 587 426 639 q 475 499 458 535 q 498 438 478 492 q 525 371 518 385 q 536 343 536 346 q 596 201 536 331 l 614 163 l 638 204 q 676 263 643 213 q 724 343 708 313 q 747 378 742 378 q 750 374 750 378 q 668 178 750 360 q 642 106 642 119 q 656 67 642 97 q 698 1 671 33 q 740 -37 725 -32 q 763 -40 747 -40 q 874 3 824 -40 q 892 11 885 14 q 893 8 893 11 q 860 -39 893 -4 q 806 -83 826 -74 q 783 -96 786 -90 q 738 -108 778 -108 q 731 -108 735 -108 q 726 -107 728 -107 q 699 -93 711 -106 q 683 -82 688 -82 q 651 -52 678 -82 q 615 -6 624 -22 q 592 22 601 22 q 578 7 589 22 q 568 -12 568 -8 l 553 -36 q 501 -87 522 -79 q 469 -104 482 -97 q 297 -153 388 -153 q 194 -136 243 -153 q 149 -117 160 -124 q 117 -90 138 -111 q 36 111 36 -10 l 36 129 q 82 288 42 204 q 151 415 136 397 q 158 426 158 422 q 172 456 158 432 q 201 504 189 485 q 219 535 213 524 q 236 569 225 546 q 297 654 263 622 q 308 672 308 663 q 297 699 308 681 q 285 728 285 717 q 281 740 285 739 q 258 779 276 742 q 237 818 250 797 q 215 856 224 839 q 200 901 207 874 q 194 933 194 922 q 204 957 194 946 q 308 986 218 971 z "},"'":{"ha":213,"x_min":35,"x_max":179,"o":"m 168 956 q 178 946 176 956 q 179 935 179 942 q 169 885 179 928 q 135 714 157 832 q 118 665 126 665 q 106 678 111 665 q 86 756 101 690 q 50 885 71 814 q 35 943 35 939 q 97 951 35 946 q 168 956 158 956 z "},"‚":{"ha":213,"x_min":35,"x_max":179,"o":"m 168 956 q 178 946 176 956 q 179 935 179 942 q 169 885 179 928 q 135 714 157 832 q 118 665 126 665 q 106 678 111 665 q 86 756 101 690 q 50 885 71 814 q 35 943 35 939 q 97 951 35 946 q 168 956 158 956 z "},"(":{"ha":425,"x_min":35,"x_max":389,"o":"m 301 969 q 317 981 306 969 q 333 992 328 992 q 338 990 338 992 q 319 937 338 983 q 292 876 300 890 q 249 781 279 856 q 189 569 217 704 q 178 428 178 514 q 181 361 178 379 q 239 124 193 265 q 282 25 249 94 q 326 -57 315 -44 q 366 -113 343 -76 q 389 -157 389 -150 q 388 -158 389 -158 q 292 -90 372 -158 q 179 18 211 -22 q 94 150 128 88 q 90 160 93 153 q 86 168 86 167 q 44 288 54 222 q 35 424 35 351 q 47 546 35 500 q 79 651 68 626 q 110 710 101 701 q 132 747 113 713 l 151 783 q 161 799 161 797 q 229 897 169 824 q 301 969 289 969 z "},")":{"ha":419,"x_min":36,"x_max":383,"o":"m 94 979 q 144 949 104 979 q 215 889 185 918 q 283 806 267 839 q 311 758 300 772 q 340 694 322 742 q 357 633 357 647 q 363 615 357 631 q 369 593 369 599 l 369 590 q 371 571 367 582 q 381 496 375 560 q 383 442 383 451 q 378 382 383 414 q 371 306 371 336 q 356 209 372 268 q 319 107 340 150 q 299 68 314 97 q 278 28 285 39 q 256 -11 271 18 q 219 -62 242 -35 q 189 -89 196 -89 l 188 -89 q 165 -107 183 -86 q 93 -154 150 -126 q 39 -178 49 -178 q 36 -175 36 -178 q 61 -144 36 -169 q 85 -117 75 -131 q 108 -87 96 -104 q 128 -61 119 -71 q 160 -2 142 -43 q 189 57 178 39 q 221 118 208 88 q 249 206 244 176 q 263 282 257 256 q 279 457 279 361 q 243 713 279 604 q 190 836 226 764 q 139 918 158 900 q 90 969 90 963 q 94 979 90 979 z "},"*":{"ha":383,"x_min":28,"x_max":358,"o":"m 246 692 q 232 701 246 719 q 246 676 226 696 l 246 692 m 122 792 q 119 794 122 794 q 115 792 115 794 q 119 788 115 788 q 122 792 122 788 m 275 796 q 272 801 275 801 q 268 796 268 801 q 272 792 268 792 q 275 796 275 792 m 235 765 q 232 778 233 767 q 228 798 231 789 q 221 807 225 807 q 217 804 219 807 q 194 800 215 803 l 172 797 q 161 776 171 796 l 153 756 l 169 743 q 179 735 175 740 q 186 728 183 731 q 192 726 189 726 q 208 736 199 726 q 235 765 236 760 m 215 853 q 207 871 210 871 q 198 858 204 871 q 193 843 192 844 q 207 844 194 842 q 215 853 218 846 m 194 675 q 177 662 193 675 q 158 649 161 649 q 139 664 154 649 l 125 678 q 150 699 143 696 q 152 708 156 703 q 143 717 149 713 q 136 721 138 722 l 136 719 q 133 716 135 718 q 130 710 132 714 q 126 704 128 707 q 115 683 125 700 q 98 651 106 667 q 90 629 90 635 q 83 619 90 626 q 65 606 75 613 q 54 599 56 600 q 39 600 49 590 q 39 614 32 608 q 49 635 40 615 q 68 675 54 654 q 80 693 76 686 q 87 709 83 700 q 94 728 90 718 q 101 750 101 742 q 87 769 101 757 q 54 790 72 781 q 38 818 28 804 q 96 832 43 828 q 153 853 146 836 q 161 864 158 864 q 167 872 167 864 q 167 880 167 875 q 168 886 168 885 q 188 919 171 903 q 208 929 196 928 q 224 924 221 931 q 238 901 226 914 q 254 869 247 889 q 265 843 261 847 q 285 839 268 839 l 290 839 q 314 837 308 839 q 332 822 319 835 q 344 799 358 799 q 339 793 342 799 q 327 779 336 789 q 317 769 318 769 q 297 751 315 769 q 281 725 281 736 q 288 667 281 719 l 293 633 l 282 619 q 265 608 272 608 q 246 624 257 608 q 216 657 235 639 q 194 675 197 675 z "},"+":{"ha":707,"x_min":35,"x_max":679,"o":"m 289 453 q 281 481 289 454 q 274 511 274 507 q 251 561 274 519 l 231 603 l 239 618 q 331 693 254 642 q 358 710 357 711 q 360 656 360 708 l 360 629 q 374 532 360 593 q 389 489 385 489 q 400 493 392 489 q 421 497 417 499 q 428 499 428 494 q 442 508 428 503 q 476 517 457 513 q 500 525 494 522 q 578 543 531 539 q 594 548 586 543 q 611 553 601 553 l 631 553 q 671 550 651 553 q 656 525 678 550 q 594 435 614 476 q 585 417 588 419 q 572 417 582 415 q 540 419 556 419 q 453 408 483 419 q 424 401 442 404 q 381 361 385 396 q 354 275 371 297 q 346 254 350 269 q 335 232 344 244 q 314 196 331 226 q 275 129 288 149 q 260 104 267 118 q 213 50 229 50 q 210 51 210 50 q 228 93 210 54 q 258 172 250 136 q 279 233 268 211 q 299 311 292 263 q 301 328 299 317 q 303 344 303 340 q 299 349 303 349 q 287 345 294 349 q 272 337 279 342 q 258 328 265 332 l 251 324 q 234 312 244 322 q 215 299 224 301 q 199 290 210 297 q 178 282 189 282 q 163 279 164 282 q 128 269 156 269 q 113 271 117 269 q 72 290 72 282 q 65 296 72 293 q 49 317 58 299 q 36 350 39 335 q 35 355 36 351 q 35 360 35 358 q 49 411 35 383 q 86 454 64 439 q 118 465 113 472 q 110 447 118 460 q 94 394 94 419 q 107 364 94 369 q 126 360 115 360 q 186 381 147 360 q 240 414 231 404 q 272 439 256 429 q 289 453 289 450 z "},",":{"ha":188,"x_min":29,"x_max":156,"o":"m 36 -3 q 60 22 36 22 q 75 21 69 22 q 104 19 85 19 l 129 19 q 156 13 156 19 q 110 -97 156 3 q 50 -221 53 -217 l 39 -237 l 33 -203 q 29 -157 29 -181 q 32 -94 29 -150 q 36 -3 36 -35 z "},"-":{"ha":635,"x_min":32,"x_max":601,"o":"m 576 433 q 597 446 594 446 q 601 439 601 446 q 586 403 601 422 q 563 368 567 378 q 432 282 518 282 l 401 282 l 397 281 q 385 280 393 281 q 371 279 376 279 q 299 275 339 278 q 224 269 258 272 q 186 267 190 267 q 128 248 164 264 q 74 215 92 232 q 46 183 58 203 q 36 172 39 172 q 32 188 32 172 q 33 218 32 206 q 53 272 36 254 q 120 340 101 326 q 182 364 139 353 q 365 383 243 379 l 408 383 q 463 381 451 383 q 474 379 465 379 q 540 406 507 379 q 576 433 554 418 z "},".":{"ha":211,"x_min":31,"x_max":182,"o":"m 64 10 q 103 19 81 19 q 140 10 124 19 q 169 -17 156 0 q 182 -44 182 -31 q 175 -81 182 -53 q 151 -113 171 -94 q 117 -136 131 -132 q 104 -137 113 -137 q 44 -93 69 -137 q 31 -39 31 -69 q 64 10 31 -11 z "},"/":{"ha":701,"x_min":36,"x_max":668,"o":"m 579 956 q 643 981 632 981 q 664 968 656 981 q 663 961 667 963 q 657 956 657 958 q 640 926 657 950 q 621 889 624 903 q 614 878 618 878 q 606 867 611 878 q 560 790 599 851 q 519 724 522 728 q 496 690 501 693 q 490 681 493 689 q 481 657 489 672 q 463 623 474 642 q 447 596 451 604 q 427 562 440 582 q 410 540 414 542 q 407 533 407 538 q 397 513 407 529 q 311 351 357 421 q 276 294 304 340 q 238 233 249 247 q 181 146 219 211 q 108 33 138 76 q 53 -57 63 -33 q 42 -76 46 -71 q 38 -79 39 -81 q 36 -74 36 -78 q 75 33 36 -47 q 82 46 76 35 q 95 72 88 57 q 110 101 103 88 q 165 231 138 156 q 231 375 179 265 q 326 580 282 485 q 374 683 371 675 q 450 881 379 701 q 579 956 457 900 z "},":":{"ha":206,"x_min":33,"x_max":171,"o":"m 69 613 q 89 625 88 625 l 90 625 q 118 617 97 625 q 144 603 139 608 q 171 544 171 576 q 149 501 171 521 q 114 483 129 483 l 101 483 q 67 494 79 486 q 46 524 56 501 q 38 557 38 540 q 69 613 38 589 m 57 285 q 86 301 72 301 q 115 293 97 301 q 158 254 150 278 q 161 228 161 249 q 156 189 161 194 q 149 179 151 186 q 131 165 146 172 q 103 156 115 157 l 101 156 q 46 188 75 156 q 33 226 33 201 q 57 285 33 260 z "},";":{"ha":239,"x_min":33,"x_max":204,"o":"m 51 504 q 47 522 47 513 q 67 567 47 546 q 110 588 86 588 q 144 571 129 588 q 155 559 147 567 q 164 550 163 551 q 169 535 169 544 q 160 500 169 519 q 104 465 142 465 q 86 469 94 465 q 51 504 63 481 m 79 197 q 115 200 88 200 q 203 193 196 200 q 204 189 204 193 q 175 129 204 164 q 89 13 119 63 q 76 -15 76 -7 q 67 -30 76 -21 q 58 -40 58 -39 q 43 -49 54 -46 q 34 -48 35 -50 q 35 -33 33 -46 q 51 69 36 -21 q 67 169 65 160 q 79 197 68 193 z "},"<":{"ha":472,"x_min":35,"x_max":438,"o":"m 35 403 q 56 414 56 410 q 74 429 56 419 q 205 531 118 457 q 322 643 292 606 q 360 694 344 672 q 366 703 363 699 q 372 713 369 708 q 375 719 374 717 q 378 724 376 722 l 379 725 q 379 717 379 721 q 378 699 379 714 q 346 585 371 632 q 229 439 311 518 q 207 415 207 417 q 226 401 207 413 q 269 369 240 394 q 310 339 299 344 q 392 238 335 321 q 423 183 408 214 q 438 143 438 151 l 438 142 q 431 147 435 142 q 346 228 385 200 q 303 260 307 256 q 290 268 294 268 q 275 278 288 268 q 239 299 267 286 q 147 338 151 338 q 134 343 144 338 q 119 349 124 349 q 85 363 111 349 q 47 389 58 378 l 35 403 z "},"=":{"ha":625,"x_min":33,"x_max":594,"o":"m 575 550 q 592 558 590 560 q 588 539 594 556 q 559 501 582 525 q 521 468 536 476 q 508 460 519 468 q 490 449 497 451 q 472 446 482 446 q 421 440 460 446 q 382 439 410 439 q 332 440 351 439 q 268 443 285 443 q 124 422 199 443 q 54 388 81 410 l 40 374 q 33 393 33 390 q 61 447 33 399 q 132 510 83 485 q 253 528 168 528 q 276 527 261 528 q 300 526 292 526 q 438 524 425 524 q 532 532 506 524 q 575 550 558 539 m 532 372 q 546 378 536 374 q 563 388 556 383 q 572 392 571 392 q 568 378 575 392 q 551 348 561 364 q 536 326 542 332 q 481 281 501 289 q 329 275 469 275 l 281 275 q 211 274 231 275 q 183 272 192 274 q 158 264 175 271 q 121 251 140 257 q 60 207 76 240 q 44 214 50 189 q 44 218 44 215 q 43 222 43 221 q 56 263 43 250 q 65 278 60 267 q 122 319 74 296 q 191 342 158 338 q 311 347 224 347 q 500 361 474 347 q 532 372 508 367 z "},">":{"ha":467,"x_min":35,"x_max":435,"o":"m 65 600 q 62 610 65 606 q 58 622 58 615 q 54 639 58 632 q 43 678 51 643 q 35 718 35 713 q 56 700 35 731 q 165 581 89 654 q 272 492 242 507 q 389 439 326 464 q 429 421 424 426 q 424 411 435 415 q 349 371 394 397 q 176 236 228 304 q 88 135 151 204 q 72 121 74 121 q 71 126 71 121 q 75 163 71 136 q 106 247 81 193 q 156 328 132 300 q 193 374 183 360 q 225 406 210 396 l 242 415 l 229 422 q 135 510 206 433 q 65 600 65 586 z "},"?":{"ha":733,"x_min":35,"x_max":699,"o":"m 489 1010 q 508 1011 490 1011 q 621 1003 601 1011 q 657 978 635 997 l 683 957 q 694 940 689 957 q 699 908 699 924 q 663 826 699 858 q 501 728 628 794 q 324 606 360 654 q 282 492 300 574 q 266 392 278 478 q 249 289 254 306 q 233 206 246 281 q 200 104 218 104 q 193 113 194 104 q 188 124 190 121 q 178 265 183 126 q 172 501 172 403 q 176 626 172 604 q 208 678 181 649 q 390 786 242 717 q 453 830 418 800 q 490 881 489 860 q 485 911 493 901 q 469 921 479 919 q 417 925 460 922 q 376 926 400 926 q 265 915 343 926 q 149 881 183 904 q 76 792 115 858 q 65 773 71 783 q 56 757 60 763 l 53 751 q 50 750 51 750 q 38 857 43 750 q 35 931 35 924 q 40 968 35 960 q 58 978 44 976 q 211 990 199 982 q 415 1004 219 996 q 489 1010 486 1007 m 206 33 q 215 35 208 35 q 251 26 242 35 q 292 -26 281 3 q 296 -56 296 -42 q 272 -118 296 -99 q 215 -129 258 -129 q 204 -128 206 -129 q 186 -122 201 -125 q 172 -118 178 -122 q 161 -105 167 -114 q 153 -93 156 -96 q 138 -43 138 -78 q 139 -31 138 -35 q 206 33 150 13 z "},"@":{"ha":932,"x_min":36,"x_max":897,"o":"m 168 93 q 160 101 165 93 q 151 108 154 108 q 103 154 146 108 q 58 208 61 200 q 39 283 51 244 q 36 311 36 294 q 37 326 36 315 q 38 342 38 336 q 74 485 42 426 q 171 622 115 561 q 315 747 260 717 q 454 799 393 790 q 513 800 464 800 l 543 800 q 642 786 606 799 q 761 726 725 756 q 821 665 821 675 q 826 656 821 658 q 848 632 832 653 q 864 607 864 611 q 874 583 864 603 q 897 458 897 529 l 897 447 q 879 375 896 410 q 829 299 854 324 q 749 246 804 275 q 675 221 699 221 q 625 237 647 221 q 593 274 603 253 q 567 414 571 325 q 557 486 563 479 q 497 522 531 522 q 472 519 492 522 q 394 488 435 513 q 338 436 354 464 q 328 396 328 421 q 363 311 328 350 q 393 301 371 301 q 469 332 443 301 q 481 358 481 343 q 469 381 481 372 q 439 390 457 390 l 429 390 q 413 389 415 389 q 413 396 411 389 q 432 419 415 407 q 468 432 453 433 q 519 406 494 428 q 538 368 533 392 q 540 346 540 351 q 504 289 540 321 q 443 253 490 276 q 392 240 418 240 q 353 249 372 240 q 328 256 339 256 q 283 286 313 256 q 243 343 253 317 q 236 382 236 364 q 292 492 236 436 q 320 513 294 499 q 369 535 346 528 q 397 546 386 540 q 486 560 408 554 q 496 560 489 560 q 507 561 503 561 q 603 531 576 561 q 626 488 615 517 q 636 439 636 460 q 644 313 638 340 q 678 279 651 285 q 693 276 692 276 q 735 303 707 276 q 782 425 782 346 l 782 438 q 764 501 781 468 q 746 543 749 532 q 731 571 743 553 q 715 594 718 589 q 693 624 708 608 q 678 642 678 639 q 659 663 678 644 q 624 694 640 682 q 567 726 594 717 q 488 738 540 735 q 456 739 476 739 q 324 703 396 739 q 258 661 279 681 q 200 588 236 642 q 165 526 174 549 q 142 442 157 504 q 135 378 135 410 q 206 175 135 249 q 325 94 269 110 q 482 76 378 79 l 524 76 l 592 111 q 668 144 656 144 q 671 142 671 144 q 647 115 671 136 q 578 64 607 79 q 493 38 549 49 q 371 24 421 24 q 274 38 318 24 q 188 81 213 58 q 168 93 172 93 z "},"A":{"ha":994,"x_min":33,"x_max":958,"o":"m 507 857 q 500 876 504 872 q 497 874 497 878 q 496 865 496 871 q 488 825 496 846 q 449 676 469 774 q 435 628 438 633 q 419 578 431 614 q 403 528 407 542 q 338 320 385 479 q 279 121 292 161 q 628 111 410 115 l 729 108 l 729 119 q 699 254 729 157 q 646 419 651 407 q 581 617 614 496 q 535 765 563 681 q 507 857 508 842 m 958 -133 l 756 -137 q 750 -61 753 -137 q 743 19 747 15 q 482 29 733 29 l 431 29 q 304 22 347 26 l 251 17 l 249 0 q 238 -76 238 -57 q 240 -92 238 -83 q 246 -107 246 -101 q 197 -119 246 -118 q 122 -121 179 -121 l 92 -121 l 33 -117 l 43 -99 q 56 -78 51 -82 q 72 -47 58 -75 q 86 -17 86 -19 l 103 19 q 140 118 119 58 q 185 246 143 124 q 197 280 190 261 q 206 310 203 299 q 211 324 210 321 q 220 348 215 331 q 228 371 225 365 q 240 401 233 376 q 249 432 246 426 q 258 465 253 440 q 267 496 264 489 q 288 560 269 503 q 308 624 306 617 q 314 643 314 638 q 321 664 314 653 q 341 722 326 675 q 356 778 356 769 q 360 792 356 786 q 394 890 371 811 q 406 919 401 915 q 415 937 410 922 q 419 958 419 951 q 425 974 419 968 q 456 978 429 978 q 499 976 481 978 q 569 971 567 974 q 621 822 572 968 q 629 790 626 807 q 653 711 643 726 q 660 690 660 697 l 669 664 q 706 549 679 643 q 738 442 732 456 q 800 257 775 347 q 835 149 832 158 q 852 94 839 131 q 869 39 865 57 q 931 -83 893 -36 q 951 -121 951 -108 q 958 -133 951 -133 m 446 217 q 458 256 446 243 q 488 269 469 269 q 529 251 511 269 q 542 213 542 240 q 539 188 542 194 q 525 171 536 182 q 500 154 506 154 q 446 217 446 154 m 356 235 q 379 242 364 242 q 411 230 397 242 q 425 204 425 218 q 421 189 425 197 q 379 168 407 168 q 346 208 346 168 q 356 235 346 228 m 586 224 q 610 242 594 242 q 644 228 628 242 q 660 197 660 215 q 653 175 660 189 q 622 164 644 164 q 592 169 600 164 q 581 199 581 178 q 586 224 581 213 z "},"B":{"ha":817,"x_min":33,"x_max":781,"o":"m 506 339 q 519 307 506 336 q 533 276 533 278 l 542 254 q 568 167 546 244 q 575 113 575 146 q 569 72 575 85 q 547 40 563 57 q 514 14 531 22 q 464 4 499 4 q 426 10 439 4 q 364 107 375 28 q 361 142 361 121 q 364 169 361 160 q 376 196 371 196 q 383 178 382 196 q 402 128 386 157 q 431 89 418 100 q 456 78 446 78 q 471 83 464 78 q 479 131 479 89 q 460 239 479 175 q 449 271 456 254 q 371 503 429 318 l 353 556 l 350 554 q 342 550 347 553 q 332 544 336 547 q 308 521 313 533 q 306 238 306 507 q 314 -42 306 -32 q 360 -54 321 -50 q 418 -58 393 -58 q 521 -26 467 -58 q 611 67 582 11 q 647 219 647 139 q 640 294 647 265 q 610 379 633 324 q 549 494 578 456 q 519 539 536 511 q 489 585 501 567 q 454 614 468 614 q 422 596 442 614 l 408 585 l 417 557 q 444 481 425 529 q 465 432 457 450 q 479 399 472 414 q 492 374 486 385 q 506 339 506 346 m 471 910 q 407 922 433 922 q 376 921 388 922 q 347 915 354 918 q 329 900 339 913 q 304 858 308 878 q 300 768 300 838 q 301 726 300 747 q 302 690 301 704 q 303 672 303 675 q 303 658 303 668 q 304 646 304 649 l 306 633 l 322 643 q 374 672 369 671 q 393 684 382 675 q 414 697 404 693 q 474 738 439 711 q 521 782 508 765 q 542 833 542 810 q 536 849 542 843 q 528 865 528 857 q 510 889 528 875 q 471 910 493 903 m 185 979 q 278 983 243 979 q 375 990 314 988 q 488 994 449 994 q 610 979 547 994 q 663 958 644 971 q 717 868 717 917 q 711 828 717 849 q 690 791 707 813 q 667 769 674 769 q 660 764 661 769 q 601 716 660 761 q 543 668 543 671 q 569 613 543 661 q 625 513 622 515 q 719 328 631 504 q 761 228 739 290 q 778 171 775 186 q 781 111 781 156 l 781 51 l 761 11 q 731 -35 743 -25 q 719 -47 719 -43 q 691 -77 719 -54 q 639 -114 663 -100 q 584 -137 608 -132 q 504 -143 560 -143 l 474 -143 q 275 -137 394 -143 q 188 -135 206 -135 l 164 -136 q 128 -139 161 -139 q 100 -137 100 -139 q 136 -94 100 -131 q 178 -44 168 -62 q 188 4 188 -26 q 186 35 188 22 q 185 178 185 50 l 185 268 q 185 342 185 297 q 186 403 186 388 l 185 460 q 122 433 181 460 q 94 424 100 424 q 76 414 89 424 q 50 406 67 406 q 33 413 33 406 q 107 493 33 419 l 182 568 l 185 626 q 189 694 188 689 q 192 778 192 714 q 188 878 192 861 q 144 936 182 899 q 108 976 108 972 q 185 979 108 979 z "},"C":{"ha":819,"x_min":33,"x_max":783,"o":"m 733 994 q 760 988 744 1006 q 776 879 768 978 q 783 781 783 789 q 756 797 779 781 q 699 824 738 810 q 647 844 660 838 q 575 864 617 860 q 547 865 572 864 q 507 865 522 865 q 469 864 490 865 l 447 864 q 394 856 433 861 q 340 847 354 850 q 268 819 294 840 q 219 751 242 797 q 184 670 190 692 q 176 613 178 649 q 172 504 175 601 q 171 457 171 485 q 176 397 171 421 q 236 225 197 306 q 251 188 251 192 q 293 128 251 178 q 368 47 335 79 q 479 -39 440 -21 q 511 -58 504 -51 q 569 -83 514 -61 q 628 -107 625 -106 q 628 -117 631 -110 q 614 -124 625 -124 l 575 -118 q 540 -114 565 -117 q 507 -110 514 -111 q 393 -74 443 -103 q 328 -30 364 -56 q 293 0 293 -4 q 269 19 293 4 q 190 97 242 38 q 178 114 183 103 q 147 157 171 125 q 82 281 111 210 q 47 407 53 351 q 33 551 33 515 l 33 590 q 35 644 35 624 q 40 682 36 665 q 45 706 43 699 q 54 734 47 714 q 65 768 61 754 q 81 807 76 803 q 88 817 88 811 q 116 858 88 826 q 168 906 144 889 q 326 953 228 946 q 447 963 446 963 q 533 969 500 969 q 643 981 556 969 q 733 994 731 992 m 339 579 q 368 592 356 592 q 386 590 378 592 q 450 565 424 586 q 483 486 483 538 q 449 410 483 432 q 421 401 433 401 q 401 403 410 401 q 333 429 365 406 q 303 489 303 454 q 303 497 303 492 q 304 507 304 503 q 314 551 307 538 q 339 579 321 565 z "},"D":{"ha":844,"x_min":18,"x_max":810,"o":"m 294 832 q 258 869 264 869 q 251 853 251 869 q 253 700 251 833 q 256 488 256 567 q 251 325 256 378 q 240 -7 240 181 q 243 -75 240 -72 q 321 -81 246 -78 l 356 -81 q 475 -56 431 -81 q 523 -18 494 -44 q 565 29 551 8 q 600 119 583 56 q 617 229 617 183 q 616 238 617 232 q 615 246 615 243 q 603 310 613 269 q 573 418 583 389 q 536 499 563 447 q 439 656 489 592 q 402 706 424 674 q 357 763 381 739 q 294 832 319 804 m 42 965 q 54 969 53 965 q 81 974 56 974 q 178 965 119 974 q 264 944 238 956 q 306 924 285 936 q 351 895 328 913 q 388 866 374 878 q 427 832 401 854 q 461 803 453 810 q 639 610 556 725 q 763 396 685 543 q 810 174 810 308 q 797 58 810 113 q 781 4 792 25 q 769 -16 778 0 q 757 -39 761 -32 q 590 -164 713 -122 q 415 -185 528 -185 q 339 -174 360 -185 q 225 -146 283 -146 q 89 -182 156 -146 q 60 -193 63 -196 q 56 -185 56 -192 q 88 -139 56 -171 q 133 -58 121 -104 q 148 87 144 -11 q 153 453 151 185 q 146 847 153 815 q 135 890 140 875 q 105 916 133 896 q 53 947 76 936 q 42 965 19 965 m 336 628 q 335 638 335 632 q 336 640 335 640 q 376 596 342 640 q 467 453 439 519 q 535 246 535 296 l 535 226 l 507 251 q 399 308 453 301 l 376 311 l 376 371 q 350 563 376 444 q 342 601 347 578 q 336 628 336 624 m 367 226 q 390 231 378 231 q 444 214 419 231 q 479 140 479 190 q 464 92 479 110 q 424 74 449 74 q 376 90 401 74 q 349 114 350 108 q 342 124 346 121 q 336 158 336 126 q 367 226 336 211 z "},"E":{"ha":903,"x_min":31,"x_max":867,"o":"m 196 138 q 184 160 196 140 q 172 182 172 181 q 157 222 172 192 q 118 319 129 285 q 96 396 99 379 q 88 433 92 415 q 83 458 85 451 q 80 474 82 464 q 78 488 78 485 q 77 504 78 490 q 76 526 76 518 q 76 562 76 535 q 75 614 75 589 q 64 850 74 774 q 40 949 56 910 q 35 975 31 971 q 342 983 39 979 q 725 988 640 988 q 783 987 763 988 q 814 984 804 986 q 825 981 824 982 q 831 976 826 981 q 856 904 844 963 q 867 822 867 856 q 860 801 867 801 q 825 821 854 801 q 743 867 768 857 q 660 892 718 878 q 611 906 639 899 q 539 911 589 911 q 278 893 458 911 q 213 876 229 888 q 178 824 178 853 q 192 792 178 811 q 224 763 206 774 l 243 749 l 349 750 q 477 753 399 750 q 588 757 556 757 l 597 757 q 717 776 675 757 q 739 783 733 783 q 754 742 753 783 q 757 708 756 732 q 758 674 758 683 q 759 663 758 669 q 760 654 760 657 q 750 636 760 636 q 738 639 743 636 q 724 647 728 643 q 632 674 706 665 q 564 676 590 676 q 369 672 524 676 q 244 657 265 669 q 214 635 228 649 q 195 597 204 625 q 183 546 186 568 l 183 538 q 199 431 183 513 q 204 413 201 415 q 228 314 215 399 q 247 251 232 285 q 260 217 260 224 q 274 190 260 208 q 308 133 294 164 q 329 110 314 124 q 346 90 346 96 q 403 32 346 81 q 478 -21 461 -17 q 492 -28 492 -24 q 534 -51 492 -32 q 578 -74 576 -69 q 635 -101 579 -78 q 729 -124 671 -117 q 826 -133 788 -131 q 865 -137 865 -135 q 788 -153 865 -149 q 742 -154 772 -154 q 510 -115 621 -154 q 389 -56 421 -86 q 365 -39 378 -47 q 290 26 339 -22 q 215 108 242 74 q 196 138 196 133 m 286 576 q 317 586 297 586 q 346 576 335 586 q 368 543 358 565 q 376 519 376 525 q 371 499 376 511 q 322 465 357 465 l 317 465 q 297 469 303 465 q 278 489 290 472 q 261 519 261 510 q 262 524 261 521 q 263 531 263 528 q 286 576 268 560 m 303 371 q 332 386 317 386 q 367 376 346 386 q 400 328 400 361 q 385 285 400 303 q 347 268 369 268 q 315 282 333 268 q 290 311 297 296 q 285 333 285 322 q 303 371 285 351 z "},"F":{"ha":914,"x_min":33,"x_max":878,"o":"m 803 990 q 819 990 808 994 q 836 978 829 986 q 858 914 846 965 q 878 825 878 836 q 876 817 878 819 q 875 800 875 814 q 872 797 875 797 q 813 833 854 797 q 778 858 799 846 q 749 869 757 869 q 718 881 746 869 q 642 902 675 899 q 489 906 610 906 l 431 906 q 325 901 351 906 q 278 883 299 897 q 263 869 267 875 q 258 844 260 864 q 258 836 258 842 q 257 829 257 831 q 282 789 257 803 q 295 783 285 788 q 310 776 306 778 q 407 763 340 763 q 428 764 422 763 q 435 765 431 764 q 440 765 439 765 q 454 763 447 765 q 468 760 461 760 q 474 760 469 760 q 481 761 478 761 q 521 760 506 764 q 549 757 535 757 q 588 760 557 757 q 735 779 735 771 q 744 783 735 783 q 757 771 753 783 q 774 723 758 760 q 790 678 790 686 q 793 669 790 669 q 805 654 797 669 q 813 631 813 639 q 803 624 813 624 q 767 638 788 624 q 684 678 718 671 q 525 686 650 685 q 432 688 485 688 q 333 681 379 688 q 276 657 289 674 q 235 446 240 614 q 228 305 233 390 q 224 149 224 219 l 224 126 q 233 -2 224 44 q 271 -106 243 -49 q 288 -151 286 -137 q 288 -166 289 -164 q 276 -168 286 -168 q 229 -169 256 -168 q 188 -170 203 -169 q 163 -171 174 -171 q 94 -165 124 -171 q 39 -144 39 -153 q 42 -137 39 -143 q 52 -119 43 -135 q 65 -97 61 -104 q 104 -17 92 -68 q 117 313 117 33 q 110 713 117 479 q 85 886 106 844 q 51 943 56 943 q 47 951 47 943 q 40 963 47 960 q 33 967 33 964 q 71 974 33 974 q 236 979 97 974 q 582 986 340 983 q 803 990 801 989 m 376 574 q 413 555 396 574 q 429 517 429 536 q 413 474 429 493 q 378 454 397 454 q 367 457 375 454 q 319 494 329 474 q 317 508 317 499 q 335 552 317 531 q 376 574 354 574 m 329 358 q 363 372 346 375 q 417 340 401 365 q 419 304 422 332 q 403 268 415 279 q 374 256 389 256 q 342 267 361 256 q 314 301 321 279 q 308 326 308 321 q 329 358 308 339 z "},"G":{"ha":935,"x_min":33,"x_max":899,"o":"m 50 967 l 92 967 q 181 966 119 967 q 360 965 243 965 q 594 964 476 964 l 856 963 q 869 940 864 951 q 876 919 874 928 q 881 888 878 910 q 888 850 885 867 q 899 779 899 786 q 894 768 899 768 q 843 801 886 768 q 726 874 763 863 q 514 901 636 901 q 490 901 507 901 q 465 900 474 900 q 385 895 401 897 q 340 882 369 893 q 238 828 271 854 q 213 783 219 814 q 204 728 204 753 q 200 685 204 710 q 199 654 199 676 q 210 519 199 600 q 236 413 222 439 q 247 385 243 397 q 256 349 251 372 q 264 314 261 326 q 413 72 293 210 q 463 27 426 56 q 524 -17 499 -1 q 569 -44 549 -31 q 610 -58 589 -58 q 675 -14 640 -58 q 703 34 697 17 q 710 88 710 51 q 699 147 710 129 q 652 194 679 179 q 569 217 625 208 q 533 225 540 222 l 532 226 q 585 242 532 236 q 661 260 625 244 q 710 301 697 276 q 710 333 718 317 q 664 368 703 350 q 576 389 625 388 q 522 394 522 390 q 542 403 522 396 q 663 444 633 431 q 707 475 693 457 q 721 492 718 489 q 724 501 724 494 q 711 540 724 521 q 649 574 697 563 q 592 579 622 579 q 500 560 543 579 q 457 526 482 551 q 421 478 432 500 q 390 392 390 417 q 383 378 390 378 q 376 383 379 376 q 365 553 369 397 q 365 585 365 565 q 364 613 364 606 q 367 650 364 647 q 604 653 372 653 l 729 653 q 831 651 810 653 q 853 640 853 649 l 853 638 q 851 633 851 635 q 838 592 847 618 q 811 76 813 526 q 803 -222 811 -204 q 778 -240 794 -240 q 767 -237 775 -240 q 746 -232 758 -232 q 694 -217 715 -232 q 617 -172 690 -212 q 557 -133 583 -153 q 518 -110 521 -110 q 473 -82 511 -110 q 411 -32 435 -54 q 276 106 276 93 q 274 113 276 113 q 232 174 265 113 q 201 224 215 203 q 182 263 182 256 q 175 275 182 268 q 149 347 167 285 q 132 429 132 410 q 125 465 132 447 q 97 608 101 546 q 88 668 88 660 q 80 740 85 700 q 72 814 75 781 q 43 932 67 889 q 33 957 33 951 q 50 967 33 964 z "},"H":{"ha":867,"x_min":33,"x_max":833,"o":"m 676 690 q 454 696 675 692 q 224 700 233 700 q 218 701 221 700 q 214 701 215 701 q 194 672 199 701 l 192 649 l 240 647 q 313 640 293 644 q 508 632 339 635 l 681 629 q 682 667 686 654 q 680 679 679 675 q 681 686 681 683 q 676 690 681 689 m 33 967 q 107 969 33 969 q 258 964 256 969 q 233 928 258 956 q 189 825 189 878 q 190 816 189 822 q 190 807 190 810 l 193 772 l 335 768 q 606 764 561 764 q 656 765 647 764 l 675 767 l 672 806 q 651 896 665 886 q 635 921 649 899 q 615 946 622 943 q 610 954 608 947 q 618 963 611 961 q 683 964 622 964 q 803 961 803 964 q 783 913 803 954 l 761 868 l 760 817 q 758 732 758 789 q 771 260 758 710 q 790 -60 776 -8 q 815 -107 797 -83 q 831 -133 833 -128 q 701 -142 828 -142 q 638 -137 638 -142 q 646 -121 638 -131 q 689 214 689 -65 q 686 407 689 333 q 679 551 681 544 q 668 560 678 558 q 611 563 658 563 l 546 563 l 521 546 q 453 464 483 522 q 438 439 439 439 q 425 474 435 439 q 390 532 414 508 q 345 565 364 558 q 267 571 326 571 q 196 564 197 571 l 196 546 q 197 424 196 475 q 214 24 200 314 q 221 -52 217 -33 q 238 -85 225 -71 q 253 -111 247 -97 l 260 -128 l 183 -128 q 65 -118 65 -128 q 78 -97 65 -115 q 104 -51 96 -72 q 115 15 115 -25 q 110 263 115 78 q 106 506 106 414 q 101 607 106 551 q 94 697 96 663 q 86 858 89 826 q 75 901 83 890 q 68 915 65 915 l 67 921 l 65 922 q 46 945 58 928 q 33 967 33 963 z "},"I":{"ha":293,"x_min":33,"x_max":258,"o":"m 131 965 q 210 969 196 969 q 229 964 225 969 q 228 949 235 957 q 207 915 219 940 l 194 892 l 194 563 q 206 -12 194 56 q 242 -89 214 -57 q 253 -105 249 -97 q 258 -118 258 -112 q 253 -125 257 -124 q 243 -126 244 -128 q 211 -124 238 -124 q 179 -125 190 -124 q 104 -131 143 -129 q 71 -132 90 -132 q 46 -122 46 -132 q 57 -99 46 -117 q 90 -3 88 -50 l 90 7 q 88 244 90 46 q 85 627 86 443 q 83 814 83 811 q 78 869 83 833 q 71 907 74 906 q 49 933 65 911 q 33 957 33 954 q 56 961 33 961 q 72 962 60 961 q 101 964 83 963 q 131 965 118 965 z "},"J":{"ha":904,"x_min":33,"x_max":868,"o":"m 269 975 q 523 979 407 975 q 740 983 639 983 l 806 983 q 868 976 868 983 q 853 958 868 968 q 772 860 808 926 q 717 675 742 800 q 688 549 692 565 q 638 381 653 411 q 586 269 590 275 q 517 167 522 174 q 488 126 500 147 q 406 39 481 115 q 326 -37 332 -37 q 306 -50 324 -37 q 267 -75 285 -65 q 194 -106 247 -85 q 135 -128 142 -128 q 188 -75 128 -128 q 210 -56 199 -64 q 242 -24 242 -29 q 271 10 242 -22 q 342 90 324 68 q 367 120 358 108 q 389 152 376 132 q 411 186 401 172 q 440 222 435 221 q 446 235 446 225 q 463 267 446 243 q 554 436 496 315 q 610 614 593 514 q 614 645 611 622 q 618 676 617 668 q 622 736 622 708 q 582 863 622 833 q 557 874 567 874 q 542 867 551 874 q 533 856 533 861 q 536 833 532 851 q 542 792 542 806 q 537 739 542 774 q 528 696 532 704 q 515 656 524 688 q 506 618 506 624 q 450 485 506 600 q 367 339 390 363 q 344 310 349 317 q 326 287 338 300 q 308 261 315 274 q 203 181 278 218 q 85 140 119 140 q 79 144 79 140 q 110 174 79 154 q 197 256 140 193 q 263 332 257 322 q 353 510 318 421 q 381 568 363 538 q 396 608 396 596 q 400 619 396 615 q 415 672 408 628 q 422 758 422 715 q 419 803 422 792 q 332 892 404 871 q 306 896 319 896 q 226 875 275 896 q 167 837 203 864 q 114 789 131 810 q 74 749 83 749 q 69 775 69 749 q 60 870 69 811 q 42 943 50 929 q 33 961 33 960 q 67 972 33 969 q 213 975 100 975 q 269 975 249 975 z "},"K":{"ha":867,"x_min":33,"x_max":831,"o":"m 375 721 q 351 707 353 707 q 315 688 350 707 l 281 668 q 248 651 275 667 q 215 632 221 636 q 211 597 210 626 q 215 275 213 581 q 226 -57 218 -18 q 260 -132 239 -112 q 269 -144 269 -142 q 151 -156 269 -156 q 38 -150 42 -156 q 56 -126 36 -146 q 83 -72 76 -107 q 99 92 90 -37 q 101 338 101 150 q 94 818 101 772 q 47 931 85 878 q 33 958 33 949 q 43 965 33 965 q 47 965 44 965 q 53 964 50 964 q 175 961 72 961 q 283 958 281 961 q 269 938 286 956 q 218 785 218 882 q 219 772 218 781 q 219 760 219 764 q 229 721 224 721 q 289 753 238 721 q 374 801 306 763 q 472 863 442 839 q 554 946 554 932 q 567 961 554 951 l 579 971 l 694 968 q 752 967 719 968 q 801 966 785 967 q 821 965 818 965 q 831 954 831 965 q 822 943 831 943 q 806 935 815 943 q 793 926 797 928 q 776 915 786 925 q 743 903 769 908 q 663 868 689 890 q 592 829 649 858 q 486 771 486 775 q 508 740 486 768 q 565 662 524 722 q 622 583 607 601 q 642 557 636 567 q 656 529 647 547 q 671 496 664 511 q 690 453 682 475 q 706 400 697 431 q 721 353 715 369 q 756 197 747 276 q 760 108 760 149 q 728 -51 760 0 q 688 -99 714 -74 q 640 -136 661 -125 q 572 -149 617 -149 q 460 -114 500 -149 q 440 -101 444 -101 q 413 -76 436 -101 q 383 -40 389 -50 q 351 68 351 18 q 354 103 351 78 q 467 256 367 194 q 535 288 518 288 q 544 285 542 288 q 526 257 551 279 q 439 96 439 174 q 440 87 439 93 q 440 78 440 81 q 451 42 443 53 q 481 18 458 32 q 535 6 497 7 l 549 6 q 613 43 592 6 q 637 102 632 79 q 643 181 642 125 l 643 200 q 640 271 643 243 q 628 334 636 299 q 617 388 619 369 q 610 413 614 404 q 600 433 607 422 q 588 456 593 443 q 567 499 571 493 q 524 575 529 569 q 514 597 519 582 q 463 674 507 618 q 436 710 436 708 q 425 726 436 717 q 407 735 414 735 q 375 721 393 735 m 324 583 q 342 588 332 588 q 378 575 354 588 q 421 514 421 544 q 411 482 421 497 q 367 451 393 451 q 346 454 363 451 q 303 481 319 461 q 286 526 286 501 q 288 539 286 535 q 324 583 292 565 z "},"L":{"ha":774,"x_min":33,"x_max":738,"o":"m 97 985 q 196 988 114 988 q 271 985 269 988 q 256 954 274 982 q 206 783 217 896 q 201 615 201 746 q 207 389 201 444 q 217 228 217 301 q 228 82 217 115 q 248 47 232 68 q 269 26 264 26 q 288 39 275 26 q 324 406 324 76 q 326 543 324 543 q 338 440 329 543 q 383 168 353 263 q 399 108 396 124 q 420 54 403 88 q 453 6 438 21 q 490 -14 472 -14 q 593 19 533 -14 q 711 107 653 51 q 724 119 718 114 q 733 128 731 125 l 738 131 l 736 126 q 732 115 735 122 q 728 103 729 108 q 707 -51 708 46 q 703 -118 704 -115 q 489 -122 700 -122 q 276 -124 278 -122 q 189 -128 272 -128 q 82 -129 142 -129 l 75 -129 q 54 -114 54 -129 q 63 -74 54 -103 q 88 65 83 -6 q 94 356 93 135 q 96 656 96 501 q 86 803 96 758 q 73 860 81 824 q 51 925 65 896 q 33 972 33 967 q 97 985 33 979 z "},"M":{"ha":988,"x_min":22,"x_max":951,"o":"m 446 993 q 481 1011 464 1011 q 536 978 500 1011 q 556 931 556 960 q 538 897 556 915 q 500 876 514 876 q 469 885 488 876 q 433 917 444 896 q 425 949 425 933 q 446 993 425 972 m 46 989 q 160 990 51 990 q 268 985 247 990 q 304 954 289 981 q 385 864 311 943 q 465 772 458 785 q 482 754 476 754 q 499 772 489 754 q 560 839 507 789 q 653 919 613 889 q 706 961 668 932 q 769 972 717 971 q 871 975 824 975 q 890 974 889 975 q 895 973 892 972 q 902 974 899 974 q 906 971 906 974 q 919 965 906 965 l 933 965 l 900 924 q 858 861 865 881 q 843 610 843 819 q 851 424 843 489 q 860 246 854 406 q 876 37 864 103 q 919 -82 888 -29 q 944 -129 938 -112 l 951 -146 l 850 -146 q 726 -149 751 -146 q 714 -150 721 -150 q 707 -144 707 -150 q 726 -97 707 -135 q 758 -10 749 -51 q 771 110 767 31 q 772 178 772 135 q 769 288 772 217 q 765 414 765 358 q 744 774 765 524 q 742 832 742 807 q 740 861 742 861 q 686 835 728 861 q 616 764 672 825 q 547 683 560 703 q 507 600 532 661 q 481 539 482 540 q 472 540 476 539 q 456 574 467 542 q 404 701 444 608 q 308 831 375 769 q 236 882 254 882 l 235 882 q 225 699 229 876 q 221 578 222 586 q 215 447 215 539 q 218 367 215 397 q 225 192 222 332 q 240 -64 229 -39 q 253 -79 246 -76 q 260 -92 260 -82 q 279 -103 260 -96 q 299 -117 299 -110 q 207 -124 299 -121 q 83 -129 117 -126 q 64 -131 67 -132 q 63 -125 61 -131 q 74 -106 65 -118 q 86 -89 83 -93 q 106 -15 92 -78 q 122 78 119 47 q 125 288 125 111 l 125 424 l 124 731 l 111 794 q 40 964 90 908 q 46 989 22 985 z "},"N":{"ha":960,"x_min":26,"x_max":926,"o":"m 58 999 q 94 1003 72 1003 q 221 986 136 1003 q 411 931 290 972 q 458 915 422 926 q 511 899 494 904 q 617 857 560 883 q 708 803 661 836 q 738 783 733 783 q 740 794 740 783 q 731 860 740 817 q 700 929 721 899 q 681 969 681 957 q 690 981 681 979 q 801 990 728 989 q 825 991 810 990 q 846 992 840 992 q 903 981 903 992 q 893 967 903 976 q 858 892 868 943 q 853 701 853 853 q 858 421 853 579 q 867 132 864 274 l 869 -39 l 889 -79 q 917 -132 908 -118 q 918 -147 926 -144 q 869 -150 913 -150 q 769 -147 808 -150 l 708 -144 l 726 -121 q 749 -83 743 -97 q 761 163 761 -53 q 757 346 761 264 q 750 622 754 394 l 749 701 l 722 713 q 699 723 718 714 q 674 736 681 732 q 591 775 611 768 q 511 794 571 782 q 386 810 454 810 q 351 807 371 810 q 304 782 319 800 q 258 675 271 743 q 251 435 251 629 q 265 -35 251 79 q 273 -83 269 -72 q 292 -110 276 -93 q 306 -131 307 -129 l 196 -133 q 156 -134 179 -133 q 126 -135 133 -135 q 89 -131 89 -135 q 103 -119 89 -126 q 142 -31 129 -107 q 149 171 149 4 q 146 576 149 201 q 139 858 144 844 q 135 869 138 861 q 130 883 132 876 q 126 896 128 890 q 111 936 121 921 q 74 967 103 947 q 38 988 46 988 q 42 993 26 988 l 58 999 m 378 710 q 407 719 389 719 q 449 706 429 719 q 479 661 479 686 q 478 644 479 650 q 460 603 474 617 q 419 588 444 588 q 353 664 353 588 q 363 701 353 701 q 378 710 367 701 z "},"O":{"ha":743,"x_min":32,"x_max":708,"o":"m 418 801 q 363 818 393 818 q 339 814 350 818 q 273 756 307 799 q 221 663 239 713 q 182 569 190 579 l 163 526 q 192 501 168 521 q 276 383 233 465 q 310 292 290 356 q 329 208 329 228 q 326 201 329 201 q 301 240 324 201 q 210 364 260 313 q 170 401 193 382 q 142 419 147 419 q 128 363 136 419 q 121 258 121 307 q 185 13 121 119 q 241 -54 199 -11 q 293 -97 283 -97 l 294 -97 q 328 6 306 -86 q 357 76 344 75 l 360 76 q 388 0 372 76 q 425 -106 411 -106 l 426 -106 q 494 -67 457 -100 q 543 -1 517 -46 q 581 78 569 43 q 611 275 608 160 l 614 365 l 599 364 q 523 331 572 363 q 429 254 474 299 l 385 210 l 388 232 q 411 296 390 250 q 436 339 425 324 q 481 388 447 354 q 560 453 531 438 q 590 472 590 471 l 585 506 q 549 601 579 533 q 494 706 519 668 q 488 717 493 708 q 481 731 483 726 q 418 801 460 774 m 267 892 q 276 904 267 894 q 285 918 285 914 q 303 940 285 924 q 336 963 322 956 q 371 974 346 967 q 393 976 388 976 q 463 942 426 976 q 526 848 485 924 q 582 722 567 772 q 689 344 653 508 q 708 140 708 250 q 693 31 708 121 q 667 -45 688 -3 q 624 -107 646 -87 q 594 -128 600 -128 q 575 -139 586 -128 q 560 -150 564 -150 l 557 -151 q 549 -155 554 -153 q 539 -158 543 -157 q 371 -178 493 -178 q 303 -174 328 -178 q 283 -171 297 -172 q 259 -167 268 -169 q 246 -160 250 -164 q 231 -154 240 -154 q 197 -143 225 -154 q 167 -132 169 -132 q 126 -103 161 -132 q 82 -61 92 -75 q 51 4 69 -44 q 35 71 33 53 q 32 136 35 83 l 32 157 q 53 356 32 285 q 61 391 54 363 q 72 435 68 419 q 110 557 82 474 q 146 656 138 640 q 167 706 149 660 q 208 792 178 735 q 235 842 235 838 q 250 867 235 843 l 267 892 m 343 635 q 369 642 354 642 q 400 633 388 642 q 429 596 414 625 q 444 549 444 567 q 433 515 444 535 q 413 493 422 496 q 396 486 404 490 q 386 485 393 485 q 336 503 357 485 q 313 567 313 525 q 343 635 313 617 z "},"P":{"ha":801,"x_min":33,"x_max":767,"o":"m 447 910 q 421 914 436 911 q 394 919 406 917 q 379 921 383 921 l 369 921 q 303 915 344 921 q 253 904 263 910 q 234 878 243 899 q 224 835 225 857 l 224 825 q 232 682 224 703 q 289 664 239 664 l 297 664 q 375 678 326 665 q 443 703 424 692 q 474 721 449 707 q 513 747 500 735 q 550 778 542 772 q 583 836 583 800 q 568 875 583 860 q 447 910 551 892 m 400 979 q 508 982 475 982 q 639 974 610 982 q 733 935 715 954 q 767 867 767 901 q 766 861 767 864 q 765 856 765 858 q 752 814 761 829 q 718 776 743 799 q 679 742 693 756 q 610 703 671 733 q 518 663 549 672 q 392 617 492 651 q 265 574 293 582 q 228 557 231 563 q 226 546 226 553 q 227 535 226 543 q 228 522 228 528 q 232 479 231 482 q 239 475 233 475 q 301 497 253 475 q 354 521 349 519 q 478 574 418 538 q 488 580 483 578 q 495 584 492 582 q 501 587 499 586 q 505 588 503 588 q 508 587 507 588 q 508 585 508 586 q 507 569 511 576 q 371 439 494 546 q 247 319 247 332 q 240 304 247 311 q 229 107 231 294 l 229 88 q 240 -40 229 3 q 281 -110 251 -82 q 292 -126 293 -121 q 276 -133 292 -131 q 161 -136 263 -136 q 64 -133 65 -136 q 69 -118 61 -129 q 114 43 107 -62 q 119 117 115 75 q 122 217 122 142 q 118 374 122 344 q 110 605 117 382 q 103 835 104 828 q 49 929 93 878 q 33 951 33 947 q 67 958 33 956 q 400 979 225 971 m 315 846 q 353 856 326 856 q 414 829 400 856 q 421 794 421 815 q 413 751 421 767 q 382 731 404 736 q 361 728 368 728 q 314 751 342 728 q 292 799 292 769 q 315 846 292 828 z "},"Q":{"ha":892,"x_min":33,"x_max":856,"o":"m 329 850 q 297 860 311 860 q 269 856 286 860 q 206 801 247 850 q 157 621 169 757 q 154 569 154 579 q 169 465 154 531 q 176 428 176 440 q 192 357 176 415 q 236 207 222 243 q 279 132 250 171 q 376 44 325 71 q 433 33 399 33 q 453 36 449 33 q 454 39 454 36 q 368 168 454 60 q 274 294 274 288 l 275 296 q 304 272 278 296 q 336 245 322 256 q 369 221 350 235 q 404 194 388 207 q 441 165 411 189 q 485 131 471 142 l 529 96 l 542 108 q 564 142 549 115 q 594 198 579 168 q 614 235 610 228 q 668 426 643 282 q 682 586 682 506 q 675 688 682 651 q 603 828 663 767 q 564 851 579 851 q 505 824 538 851 q 467 771 472 797 q 450 704 453 731 q 435 610 442 644 q 422 528 428 576 q 414 476 418 483 l 413 475 q 394 567 403 475 q 358 828 379 797 q 329 850 349 840 m 219 37 q 214 46 219 37 q 208 61 208 56 q 190 103 208 67 q 156 172 172 139 q 143 206 140 206 q 140 210 144 206 q 135 229 135 215 q 124 275 135 239 q 96 374 119 286 q 88 408 92 389 q 81 440 83 426 q 76 456 78 453 q 53 540 60 521 q 49 579 49 553 q 44 608 49 604 q 33 697 33 619 l 33 706 q 56 796 36 746 q 94 854 76 846 q 128 879 107 860 q 228 931 174 918 q 390 954 290 946 q 429 956 400 956 q 586 943 558 956 q 596 940 589 942 q 613 935 603 938 q 629 929 622 932 q 763 857 714 903 q 786 826 786 833 q 794 808 786 822 q 806 715 801 794 q 807 646 807 690 q 785 474 807 553 q 754 361 776 443 q 718 232 732 279 q 635 49 706 194 l 624 28 l 642 14 q 785 -57 653 6 q 836 -75 819 -72 l 856 -78 l 811 -107 q 763 -136 767 -136 q 741 -144 757 -136 q 718 -153 725 -151 q 701 -160 704 -156 l 700 -160 q 662 -133 694 -160 q 621 -99 629 -107 q 593 -78 607 -85 q 574 -64 576 -68 q 546 -78 568 -57 q 497 -107 522 -100 q 460 -119 469 -114 q 443 -122 451 -122 q 340 -94 407 -122 q 303 -68 329 -89 q 268 -35 278 -47 q 261 -27 267 -33 q 253 -18 256 -21 q 244 -4 244 -10 q 235 13 244 3 q 219 37 229 18 z "},"R":{"ha":783,"x_min":33,"x_max":746,"o":"m 375 906 q 344 909 365 907 q 319 913 324 911 q 313 913 317 913 q 307 914 308 914 q 246 890 261 914 q 229 785 229 868 q 230 774 229 781 q 231 765 231 768 q 235 674 235 724 q 239 603 235 607 l 240 603 q 343 651 246 603 q 348 654 344 653 q 358 659 351 656 q 368 664 364 663 q 446 719 406 682 q 493 761 490 758 q 544 839 544 804 q 513 883 544 867 q 375 906 496 892 m 36 981 q 65 982 38 982 l 88 982 q 313 976 149 979 q 642 964 628 972 q 658 958 649 960 q 694 938 669 956 q 731 907 718 921 q 746 864 746 890 q 724 788 746 832 q 677 729 704 750 q 578 674 650 708 q 562 665 572 671 q 550 658 551 658 l 539 653 l 565 614 q 665 431 618 540 q 724 242 711 321 q 736 75 736 167 q 726 -28 736 -3 q 717 -67 722 -40 q 696 -140 704 -132 l 693 -142 q 690 -119 690 -142 q 692 -72 690 -93 q 692 -51 692 -64 q 693 -31 693 -37 q 650 207 693 60 q 572 390 614 335 q 567 397 571 393 q 563 404 564 401 l 561 407 q 544 434 561 411 q 525 460 526 457 q 481 521 514 482 q 432 571 449 560 q 397 588 407 588 q 393 583 393 588 q 399 551 393 572 q 408 526 404 529 q 421 506 413 522 q 454 438 440 467 q 506 261 500 342 q 507 231 507 249 q 499 196 507 196 q 489 218 494 196 q 400 413 460 328 q 275 525 340 499 q 239 536 240 538 l 239 528 q 242 447 239 517 q 249 185 246 375 l 250 7 l 268 -28 q 311 -93 285 -58 l 335 -125 l 301 -128 q 291 -128 299 -128 q 279 -129 283 -129 q 213 -126 260 -129 q 146 -124 165 -124 q 134 -124 142 -124 q 124 -125 126 -125 q 111 -126 119 -125 q 100 -126 103 -126 q 53 -114 56 -126 q 69 -86 53 -103 q 117 8 104 -49 q 124 263 124 36 q 99 860 124 697 q 57 939 92 901 q 33 974 33 963 q 36 981 33 979 m 304 813 q 358 842 315 842 q 396 829 381 842 q 414 793 414 813 q 411 776 414 788 q 353 740 399 740 q 313 757 328 740 q 297 788 297 775 q 304 813 297 796 z "},"S":{"ha":749,"x_min":32,"x_max":713,"o":"m 213 960 q 325 986 265 986 l 344 986 q 428 982 361 985 q 525 975 496 979 q 607 969 569 969 q 703 950 686 969 q 710 849 707 946 l 713 751 l 667 799 q 618 850 621 844 q 589 879 615 860 q 549 903 563 899 q 524 913 528 908 q 478 919 517 917 l 463 919 q 404 910 435 919 q 335 851 353 893 q 328 803 328 838 q 340 715 328 753 q 422 549 368 638 q 503 408 494 435 q 569 285 526 339 q 617 201 581 271 q 664 107 654 132 q 675 32 675 79 q 663 -40 675 -18 q 574 -117 632 -97 q 365 -139 517 -136 q 327 -140 353 -139 q 288 -140 301 -140 q 49 -129 60 -140 q 38 -47 44 -125 q 32 74 32 31 q 33 85 32 78 q 33 93 33 92 q 43 114 38 114 q 50 101 47 114 q 81 51 53 89 q 126 -1 108 14 q 203 -32 161 -32 q 233 -26 221 -32 q 306 16 283 -8 q 339 89 328 40 q 346 139 346 119 q 306 247 346 190 q 290 271 290 269 q 279 290 290 276 q 235 365 269 304 q 201 431 201 425 q 215 420 201 432 q 244 392 228 408 q 265 368 260 376 q 292 336 275 353 q 304 318 304 324 q 311 308 304 311 q 325 290 317 307 q 351 249 333 274 q 414 135 368 226 q 419 69 419 125 q 418 46 419 49 q 413 11 415 36 q 385 -58 410 -28 q 386 -64 381 -64 q 397 -62 389 -64 q 482 13 453 -51 q 496 94 496 47 q 488 150 496 129 q 483 168 486 154 q 455 249 479 193 q 417 318 431 304 q 400 347 410 325 q 385 375 390 369 q 286 515 318 476 q 242 578 265 543 q 218 613 219 611 q 170 689 196 639 q 144 756 144 739 q 138 792 144 768 q 132 832 132 808 q 147 901 132 871 q 171 935 156 918 q 193 951 186 951 q 213 960 196 951 m 444 839 q 475 842 469 842 q 507 833 490 842 q 542 779 542 817 q 538 754 542 767 q 481 708 521 708 l 471 708 q 425 735 450 713 l 400 758 l 404 785 q 444 839 413 835 z "},"T":{"ha":771,"x_min":33,"x_max":735,"o":"m 363 1014 q 365 1038 363 1032 q 378 1043 367 1043 q 393 1042 386 1043 l 415 1040 l 417 1015 q 419 990 417 993 q 528 988 422 988 q 678 985 631 988 l 719 982 l 725 950 q 735 806 735 899 q 732 779 735 779 q 714 801 729 779 q 689 829 699 825 q 549 890 596 879 q 456 907 469 907 l 447 907 l 428 906 l 429 807 q 443 590 431 750 q 451 460 446 550 q 458 339 456 371 q 464 248 461 293 q 469 164 467 203 q 474 102 471 132 q 479 53 478 72 q 497 -108 488 -75 q 503 -137 503 -133 q 494 -151 503 -147 q 458 -154 485 -154 q 433 -153 453 -154 q 401 -153 414 -153 q 311 -144 311 -150 q 319 -89 311 -142 q 363 424 350 129 q 367 719 367 536 q 363 908 367 904 l 360 908 q 354 910 357 910 q 296 904 335 910 q 247 894 257 899 q 128 826 158 857 q 110 813 118 817 q 74 782 96 804 l 50 760 l 47 775 q 38 919 38 826 l 38 931 q 35 953 40 938 q 33 964 33 957 q 58 993 33 989 q 113 996 75 996 q 201 992 140 996 q 289 989 263 989 q 324 990 313 989 q 350 992 332 992 q 361 994 360 992 q 363 1014 363 997 m 194 799 q 214 804 201 804 q 275 779 240 804 q 288 740 288 771 l 288 726 q 272 699 288 711 q 232 689 258 689 q 207 693 217 689 q 185 718 200 697 q 169 756 169 739 q 177 778 169 764 q 194 799 185 793 m 515 779 q 553 797 532 797 q 594 779 571 797 q 621 735 621 758 q 619 721 621 725 q 599 699 618 711 q 565 686 579 688 l 563 686 q 524 703 542 686 q 503 744 507 721 q 515 779 500 764 z "},"U":{"ha":761,"x_min":33,"x_max":726,"o":"m 221 1017 q 246 1032 246 1042 q 225 997 246 1028 q 193 932 207 968 q 181 900 188 914 q 169 872 174 886 q 164 850 169 869 q 156 819 158 831 q 124 674 124 699 q 126 628 124 669 q 154 428 135 529 q 197 278 178 313 q 208 261 199 275 q 226 234 218 247 q 233 217 233 221 q 256 181 233 210 q 297 135 279 151 q 418 65 361 76 q 464 60 454 60 q 507 72 492 60 q 546 143 539 97 q 560 258 560 226 q 559 268 560 263 q 558 275 558 274 l 556 300 l 542 285 q 493 253 531 271 q 428 236 460 236 q 375 249 396 236 q 306 313 338 269 q 256 467 256 378 q 278 622 256 504 q 338 726 292 688 l 349 736 l 346 722 q 328 590 338 685 q 326 553 326 578 q 371 411 326 474 q 432 372 386 388 q 454 368 442 368 q 519 417 494 368 q 535 440 528 431 q 544 452 543 449 q 547 465 546 456 q 549 500 549 475 l 549 585 q 551 807 549 704 l 551 861 q 540 926 551 904 q 529 947 533 942 q 520 960 525 953 q 507 981 515 967 l 492 1006 l 607 1004 q 725 1003 671 1003 q 722 987 726 1003 q 706 946 717 971 q 683 894 696 921 l 672 872 l 671 540 q 654 -114 668 -79 q 629 -125 650 -125 q 556 -107 592 -125 q 533 -100 542 -100 q 463 -78 525 -100 q 376 -44 401 -57 q 242 43 303 -11 q 147 142 163 113 q 133 169 146 146 q 113 206 119 192 q 60 344 97 233 q 42 448 50 372 q 33 579 33 524 q 35 611 33 603 q 60 740 42 688 q 126 876 78 792 q 221 1017 188 983 m 392 522 q 447 574 392 574 q 501 538 490 574 q 504 521 504 526 q 491 485 504 500 q 456 469 478 469 q 412 484 432 469 q 392 522 392 499 z "},"V":{"ha":775,"x_min":33,"x_max":739,"o":"m 56 957 q 33 1013 33 1006 q 36 1015 33 1015 q 66 988 40 1015 q 107 940 92 960 q 151 859 119 924 q 183 788 183 794 q 194 753 183 775 q 275 524 215 704 l 310 419 q 365 253 344 324 q 371 233 368 244 q 376 215 374 222 q 379 203 378 207 q 383 181 383 190 q 390 175 383 167 q 394 188 393 179 q 401 210 397 203 q 443 371 413 232 q 496 574 479 538 q 508 607 506 593 q 535 667 508 610 q 561 726 561 724 q 589 785 561 731 q 622 847 617 840 q 629 857 629 854 q 646 888 629 861 q 693 943 657 907 q 738 979 729 979 q 739 976 739 979 q 694 893 739 958 q 679 860 686 881 q 668 831 672 839 q 651 792 653 797 q 625 726 644 771 q 604 672 606 681 q 597 643 603 667 q 586 608 590 619 q 536 401 554 496 q 514 300 528 351 q 483 142 489 199 q 472 50 474 58 q 464 -10 464 -3 q 460 -28 464 -21 q 451 -79 457 -32 q 442 -131 444 -126 q 406 -136 438 -136 q 342 -128 361 -136 q 333 -123 339 -126 q 325 -118 328 -119 q 313 -61 317 -115 q 303 18 310 -17 q 269 189 272 178 q 231 367 243 296 q 210 454 225 397 q 190 533 194 511 q 174 590 183 567 q 165 622 171 599 q 156 653 160 646 q 149 680 154 657 q 140 708 143 703 q 135 725 135 719 q 129 743 135 732 q 113 799 126 749 q 56 957 85 896 z "},"W":{"ha":1114,"x_min":33,"x_max":1078,"o":"m 33 1015 q 58 1004 33 1028 q 110 914 81 985 q 251 547 171 792 q 315 321 286 442 q 333 276 322 289 q 369 256 344 263 q 386 253 381 253 q 433 286 411 253 q 450 315 450 310 q 458 331 450 322 q 472 367 465 339 q 481 403 478 396 q 508 519 489 422 q 533 614 528 614 q 538 611 535 614 q 557 500 550 599 q 610 324 563 415 q 647 260 638 271 q 676 247 656 249 l 685 247 q 756 319 739 247 q 776 377 760 332 q 799 440 793 422 q 815 489 807 467 q 832 540 824 511 q 843 575 838 560 q 852 601 849 590 q 860 629 856 611 q 889 703 864 646 q 918 767 903 732 q 940 816 933 803 q 967 861 947 829 q 1025 951 986 893 q 1075 1015 1069 1015 q 1076 1014 1076 1015 l 1078 1013 q 1078 1010 1078 1011 q 1058 965 1078 1000 q 986 806 1010 875 q 926 635 931 649 q 872 421 883 482 q 839 242 843 286 q 836 217 839 233 q 831 177 833 200 q 826 142 828 154 q 810 -100 810 31 q 810 -114 810 -107 q 811 -122 811 -121 q 803 -146 814 -135 q 776 -154 794 -154 q 738 -153 756 -154 q 671 -142 682 -149 q 647 -75 651 -129 q 627 -2 644 -50 q 592 75 610 46 q 525 132 556 132 q 488 118 507 132 q 449 83 464 104 q 414 18 433 61 q 390 -44 393 -29 q 383 -97 386 -60 l 381 -137 l 349 -144 q 300 -150 325 -150 q 250 -135 265 -150 l 236 -121 l 238 -42 q 238 22 238 -22 q 240 79 239 67 l 240 101 q 238 146 240 124 q 231 195 235 168 q 225 240 226 222 q 165 543 211 363 q 139 652 154 585 q 111 767 124 719 q 83 858 99 814 q 66 915 74 888 q 47 971 58 942 q 33 1015 33 1006 z "},"X":{"ha":750,"x_min":33,"x_max":719,"o":"m 143 944 q 144 947 143 947 q 203 913 150 947 q 361 736 293 854 q 407 674 396 674 q 439 710 411 674 q 488 767 457 733 q 535 821 518 801 q 588 872 563 854 q 662 919 615 892 q 714 946 708 946 q 688 919 719 946 q 581 801 639 879 q 479 653 493 685 q 457 610 461 617 l 449 597 l 481 532 q 563 346 521 447 q 602 237 576 313 q 631 146 628 161 q 679 -67 675 -28 q 682 -89 681 -74 q 685 -111 683 -104 q 683 -132 688 -132 q 676 -131 682 -132 q 603 -125 674 -129 q 531 -118 533 -121 q 525 -75 525 -114 l 525 -39 l 525 -1 q 513 143 525 40 q 476 311 506 200 q 426 476 447 422 q 403 524 407 524 l 401 524 q 368 460 397 519 q 332 381 339 400 q 306 317 326 365 q 274 224 294 292 q 253 146 253 156 q 246 126 253 140 q 215 17 233 99 q 192 -111 197 -64 q 113 -112 165 -111 q 33 -114 60 -114 q 108 132 79 67 q 176 308 175 306 q 249 438 219 397 q 257 453 257 447 q 281 494 257 457 q 350 615 343 604 q 358 633 358 629 q 300 735 358 647 q 271 781 293 746 q 238 831 249 815 q 209 870 228 846 q 174 911 190 894 q 143 944 143 939 m 317 83 q 315 103 317 93 q 314 115 314 113 q 335 147 314 125 q 376 174 360 174 q 416 164 396 174 q 440 143 436 154 q 443 119 443 138 q 432 58 443 76 q 386 29 415 29 q 336 53 360 29 q 317 83 317 72 z "},"Y":{"ha":817,"x_min":-44,"x_max":861,"o":"m 332 632 q 340 630 335 632 q 349 626 346 628 q 353 628 351 625 q 335 651 353 631 q 297 695 318 672 q 253 742 275 718 q 226 772 232 765 q 181 822 208 794 q 145 851 171 832 q 91 890 119 871 q 33 928 63 910 q -12 954 4 946 q -41 975 -43 971 q -14 979 -39 979 q 32 974 17 979 q 108 940 49 969 q 218 878 188 900 q 268 847 232 867 q 350 794 329 813 q 408 747 401 747 q 435 776 411 747 q 453 798 442 786 q 477 821 465 810 q 500 840 489 832 q 517 850 511 849 q 596 888 522 851 q 749 957 706 940 q 824 974 792 974 l 839 974 l 860 972 l 828 961 q 701 893 749 936 q 646 846 667 863 q 565 758 589 800 q 539 724 553 738 q 497 669 514 697 q 479 625 479 640 l 479 608 l 503 631 q 574 678 526 656 q 643 706 625 706 q 649 703 649 706 q 600 626 649 700 q 544 533 551 553 q 496 413 529 489 q 468 308 481 379 q 446 161 456 236 q 441 126 443 142 q 438 106 439 111 q 436 91 438 100 q 434 70 435 82 q 432 35 433 58 q 421 -160 421 -160 q 417 -172 421 -169 q 403 -174 414 -174 l 386 -174 l 383 -118 q 379 -14 379 -26 q 376 51 379 14 q 368 116 372 89 q 357 189 364 143 q 347 249 350 235 q 304 494 336 326 q 272 585 297 536 q 219 665 247 635 q 193 699 193 693 q 200 701 193 701 q 222 693 204 701 q 261 672 239 685 q 299 650 283 660 q 332 632 326 633 z "},"Z":{"ha":825,"x_min":33,"x_max":789,"o":"m 181 969 q 494 972 217 972 q 739 971 701 972 q 782 963 776 969 q 789 946 789 956 q 773 912 789 940 q 751 881 757 883 q 747 871 747 878 q 718 818 747 865 q 651 697 700 789 q 593 588 603 604 q 553 513 563 535 q 422 246 517 428 q 381 165 422 244 q 332 67 340 85 q 317 13 317 36 q 325 -21 317 -6 q 351 -40 335 -39 l 360 -40 q 483 -15 404 -40 q 577 20 542 3 q 669 78 613 38 q 710 103 704 103 q 697 11 714 103 q 679 -82 681 -81 q 672 -107 678 -83 l 668 -129 l 615 -133 q 388 -137 561 -137 q 174 -136 253 -137 q 33 -128 33 -135 q 78 -62 33 -118 q 154 47 119 -12 q 217 143 189 107 q 254 207 231 158 q 298 280 265 226 q 342 356 331 333 q 394 446 356 386 q 444 534 410 469 q 488 614 479 599 q 539 750 518 668 q 547 813 547 781 l 547 846 l 511 858 q 438 872 475 872 q 326 854 394 872 q 199 817 240 833 q 126 776 158 801 q 101 763 104 760 q 100 768 100 765 q 115 890 100 772 q 118 926 118 913 q 117 936 118 931 q 117 943 117 942 q 116 958 114 954 q 131 963 118 961 q 181 969 178 969 m 353 776 q 421 792 407 792 q 439 786 433 792 q 442 782 442 783 q 399 743 442 775 q 369 723 394 740 q 336 700 344 706 q 306 678 328 694 q 274 653 285 663 q 248 631 264 644 q 221 606 232 618 q 201 582 210 594 q 185 569 193 569 q 172 624 175 569 q 171 640 171 635 l 168 700 l 194 714 q 353 776 267 751 m 493 224 q 528 242 513 242 q 542 236 542 242 q 551 232 542 232 q 572 213 561 232 q 586 176 583 194 q 587 170 586 174 q 588 165 588 167 q 549 113 588 125 q 517 106 525 106 q 486 119 500 106 q 463 168 463 140 q 493 224 463 197 z "},"[":{"ha":597,"x_min":36,"x_max":561,"o":"m 351 986 q 422 988 399 986 q 482 990 444 990 q 542 982 536 990 q 546 969 549 972 q 514 896 535 950 q 500 868 507 875 q 483 774 483 851 q 476 733 483 733 q 444 760 471 733 q 415 792 417 786 q 403 838 414 811 q 393 871 393 863 q 360 876 393 879 q 294 853 301 872 q 285 838 292 844 q 272 789 279 831 q 265 721 265 747 q 261 689 265 694 q 250 364 253 669 q 243 221 250 267 q 236 78 236 182 q 239 24 236 40 q 267 -27 246 -11 q 336 -50 288 -43 q 389 -56 365 -56 q 429 4 415 -54 q 457 78 447 78 q 461 83 461 78 q 479 113 461 88 q 508 151 497 139 q 522 160 517 160 q 525 147 529 160 q 522 100 522 136 l 522 74 q 556 -90 524 -17 q 561 -110 561 -101 q 546 -122 561 -119 q 483 -125 531 -125 q 135 -142 426 -125 q 68 -144 74 -144 q 36 -136 36 -144 q 44 -121 36 -131 q 68 -67 61 -100 q 78 42 75 -33 q 82 142 82 117 q 88 419 82 214 q 93 704 93 625 q 71 915 93 886 q 47 965 47 946 q 67 976 47 975 q 351 986 124 983 z "},"\\":{"ha":585,"x_min":36,"x_max":550,"o":"m 76 994 q 121 995 86 994 q 172 996 156 996 l 228 997 l 233 983 q 247 936 238 974 q 260 890 257 899 q 271 844 261 888 q 281 805 272 840 q 297 740 290 769 q 304 700 304 711 q 308 687 304 699 q 319 651 311 675 q 332 610 326 628 q 410 353 410 374 q 415 331 410 342 q 435 275 421 319 q 513 14 486 117 q 526 -37 518 -8 q 538 -83 533 -65 q 544 -107 543 -101 q 543 -136 550 -131 q 533 -140 536 -140 q 528 -139 531 -140 q 524 -133 526 -137 q 522 -126 522 -129 q 518 -116 521 -122 q 514 -104 515 -110 q 472 1 508 -89 q 424 125 436 92 q 382 228 400 189 q 341 325 364 265 q 301 421 318 385 q 254 538 281 468 q 93 890 183 728 q 57 951 69 932 q 36 988 36 982 q 76 994 36 992 z "},"]":{"ha":564,"x_min":36,"x_max":528,"o":"m 63 961 q 294 965 63 965 q 528 958 528 965 q 513 931 528 953 q 472 849 485 889 q 450 733 460 810 q 440 421 440 657 q 444 142 440 186 q 448 102 446 129 q 451 65 450 75 q 456 35 453 56 q 462 5 458 15 q 470 -22 465 -6 q 483 -52 475 -39 q 500 -81 490 -65 q 528 -126 528 -121 q 519 -135 528 -132 q 279 -140 515 -137 l 146 -140 q 36 -129 36 -140 q 42 -115 36 -126 q 83 36 61 -78 q 89 106 89 65 l 89 135 l 89 163 q 90 196 89 196 q 110 175 93 196 q 133 142 126 154 q 175 -1 157 96 l 182 -46 l 204 -44 q 266 -21 231 -42 q 321 24 301 0 q 336 118 336 44 q 343 267 336 167 q 347 410 347 333 q 333 756 347 546 q 303 856 329 826 q 236 889 272 889 l 232 889 q 220 884 222 888 q 215 867 218 881 q 174 749 210 821 q 139 708 165 735 q 107 681 113 681 l 106 681 q 101 728 101 685 q 88 894 99 875 q 63 961 63 944 z "},"^":{"ha":626,"x_min":33,"x_max":592,"o":"m 267 1051 q 271 1047 267 1058 q 335 907 317 942 q 392 825 354 872 q 468 744 440 764 q 510 710 506 717 q 564 674 519 697 l 592 658 l 567 657 l 560 657 q 485 672 535 657 q 391 707 424 690 q 324 756 358 724 q 281 792 285 792 q 246 757 275 792 q 159 668 203 707 q 100 628 115 629 q 63 626 83 626 q 35 633 38 626 q 39 641 33 636 q 54 651 44 646 q 136 729 106 676 q 192 845 158 767 q 243 975 226 924 q 267 1051 267 1049 z "},"_":{"ha":842,"x_min":31,"x_max":813,"o":"m 760 -40 q 808 -28 803 -28 q 813 -35 813 -28 q 785 -83 813 -53 q 718 -137 757 -112 l 689 -156 l 504 -153 q 360 -149 450 -151 q 254 -147 269 -147 l 218 -147 q 75 -171 131 -147 q 40 -182 49 -182 q 33 -179 36 -182 q 31 -171 31 -176 q 57 -118 31 -153 q 142 -56 89 -76 q 285 -37 188 -37 l 303 -37 q 575 -47 408 -44 q 688 -49 631 -49 q 760 -40 729 -49 z "},"`":{"ha":282,"x_min":35,"x_max":249,"o":"m 121 954 q 129 955 122 954 q 148 956 136 956 q 169 956 160 956 l 188 956 q 211 952 207 956 q 218 929 215 949 q 225 861 219 919 q 240 736 229 808 q 249 656 249 674 q 242 638 249 638 q 220 656 235 638 q 196 693 206 674 q 106 826 185 718 q 77 870 96 840 q 46 917 58 900 q 35 935 35 931 q 81 947 35 939 q 121 954 117 953 z "},"a":{"ha":797,"x_min":32,"x_max":761,"o":"m 604 674 q 640 675 611 675 q 713 669 703 675 q 731 665 719 665 q 750 658 739 665 q 761 644 761 650 q 738 615 761 639 q 675 489 693 569 q 657 260 657 411 q 654 83 657 156 q 653 46 653 69 q 668 -34 653 -7 q 726 -86 683 -61 q 760 -115 760 -106 q 749 -121 760 -121 q 744 -120 747 -121 q 739 -119 742 -119 q 726 -124 733 -119 q 690 -126 724 -126 q 561 -118 575 -126 q 557 -56 557 -117 q 560 82 557 -43 q 564 247 561 142 q 567 375 567 353 l 569 476 q 550 504 575 499 q 532 506 546 506 q 408 482 456 506 q 365 456 383 469 q 340 435 347 443 q 315 407 332 428 q 288 376 297 386 q 222 265 251 335 q 193 128 193 196 q 199 75 193 97 q 208 44 203 53 q 231 19 213 36 q 332 -31 278 -26 l 361 -33 l 385 -8 q 419 51 410 18 q 431 115 431 88 q 426 146 431 131 l 424 161 l 438 149 q 464 115 449 139 q 474 90 474 100 q 469 60 474 81 q 431 -48 461 -3 q 357 -107 400 -93 q 326 -119 340 -112 q 288 -125 317 -125 q 176 -107 221 -125 q 124 -69 160 -100 q 51 17 69 -21 q 32 117 32 56 q 71 269 32 188 q 92 318 92 314 q 109 350 92 324 q 126 378 126 376 q 209 478 144 411 q 303 563 274 546 q 333 581 324 574 q 380 611 344 589 q 424 635 415 633 q 554 665 504 657 q 604 674 600 672 m 406 400 q 436 404 422 404 q 472 390 463 404 q 492 328 492 371 q 491 322 492 325 q 490 317 490 318 q 442 268 482 281 q 422 265 431 265 q 376 283 397 265 q 353 325 356 300 q 351 340 351 331 q 406 400 351 389 z "},"b":{"ha":715,"x_min":31,"x_max":682,"o":"m 372 474 q 365 481 369 474 q 358 488 361 488 q 336 500 351 488 q 319 514 321 513 q 249 568 288 536 l 214 596 l 211 554 q 210 424 210 536 q 217 -15 210 44 q 228 -72 221 -56 q 253 -107 235 -89 q 271 -126 271 -125 q 229 -122 263 -126 q 111 -117 185 -117 q 33 -112 33 -117 q 60 -54 44 -101 q 78 22 75 -7 q 88 199 79 39 q 94 626 94 347 q 86 831 94 783 q 42 967 72 907 q 35 993 31 989 q 132 1001 39 997 q 244 1006 225 1006 q 253 1001 251 1007 q 250 990 256 994 q 231 949 246 988 q 217 856 217 910 l 215 804 l 235 767 q 266 713 254 729 q 304 679 278 697 q 361 633 331 660 q 417 585 392 606 q 499 510 474 538 q 585 414 540 468 q 639 339 629 360 q 667 251 650 315 q 682 167 682 192 q 681 133 682 147 q 653 -1 678 51 q 602 -70 636 -37 q 539 -110 568 -103 q 519 -115 532 -111 q 501 -121 507 -119 q 483 -124 496 -122 q 450 -125 469 -125 q 378 -112 403 -125 q 331 -78 357 -103 q 290 -33 304 -54 q 269 47 269 -3 l 269 64 q 281 115 272 99 q 315 154 289 132 q 355 181 339 175 q 401 189 371 188 l 424 190 l 408 178 q 350 103 364 143 q 340 61 340 78 q 349 36 340 47 q 424 -3 375 -3 q 457 3 442 -3 q 526 74 501 21 q 546 139 546 114 q 529 264 546 197 q 497 338 521 294 q 451 406 474 381 q 406 451 433 428 q 372 474 379 474 m 328 374 q 347 376 336 376 q 396 368 375 376 q 425 340 413 363 q 438 293 438 317 q 433 271 438 281 q 374 232 418 232 q 316 254 342 232 q 290 311 290 276 q 302 347 290 328 q 328 374 314 367 z "},"c":{"ha":653,"x_min":33,"x_max":618,"o":"m 233 617 q 328 621 254 621 l 392 621 q 565 608 525 619 q 613 586 607 597 q 618 454 618 569 q 615 393 618 393 q 564 438 608 393 q 490 498 522 479 q 411 517 457 517 l 396 517 q 310 488 344 514 q 246 404 276 463 q 231 258 231 376 q 233 218 231 235 q 267 72 263 74 q 269 64 269 69 q 315 1 269 44 q 460 -69 371 -49 q 501 -82 490 -76 q 564 -101 540 -101 q 579 -106 574 -101 q 579 -118 585 -110 q 482 -128 569 -128 q 389 -122 422 -128 q 231 -64 282 -104 q 204 -46 207 -46 q 153 -8 193 -46 q 115 35 139 4 q 92 71 92 65 q 83 96 92 74 q 33 282 33 210 q 35 314 33 303 q 51 411 42 397 q 63 443 57 422 q 93 501 69 464 q 135 560 117 539 q 181 594 150 576 q 233 617 211 611 m 375 408 q 389 413 386 413 l 390 413 q 421 405 399 413 q 449 392 443 397 q 464 359 456 386 q 472 315 472 332 q 452 282 472 296 q 407 268 432 268 q 392 269 397 268 q 363 285 379 271 q 339 311 346 299 q 332 343 332 324 q 375 408 332 392 z "},"d":{"ha":747,"x_min":32,"x_max":711,"o":"m 450 986 q 574 988 451 988 l 693 988 q 643 899 653 932 q 631 767 633 867 q 629 647 629 718 q 633 540 629 582 q 636 364 636 524 q 661 32 636 207 q 699 -104 676 -69 q 711 -129 711 -124 q 658 -131 711 -131 q 496 -125 507 -131 q 499 -103 489 -122 q 521 -44 506 -93 q 533 44 533 -6 q 514 353 533 111 q 506 469 506 447 q 505 484 506 475 q 504 498 504 493 q 503 503 504 503 q 470 478 499 503 q 407 424 442 454 q 360 386 372 394 q 183 185 206 275 q 181 157 181 171 q 196 58 181 97 q 231 6 210 21 q 290 -10 251 -10 q 349 31 325 -10 q 364 82 364 58 q 325 158 364 129 q 313 178 306 172 q 318 179 314 179 q 381 144 340 179 q 426 43 426 106 q 419 -11 426 21 q 394 -76 408 -58 q 340 -117 381 -94 l 308 -133 l 265 -131 q 228 -126 240 -129 q 203 -117 217 -124 q 175 -107 189 -111 q 118 -75 154 -101 q 49 -3 67 -36 q 32 93 32 31 l 32 103 q 114 321 33 222 q 178 394 160 376 q 244 445 192 408 q 315 492 296 482 q 399 558 342 506 q 468 632 457 611 l 485 661 q 505 720 494 675 q 515 794 515 765 q 505 867 515 832 q 485 919 494 901 q 456 971 476 936 q 450 986 447 983 m 390 319 q 406 322 399 322 q 442 313 429 322 q 464 264 464 290 q 461 250 464 258 q 407 210 449 210 q 368 228 386 210 q 351 254 351 244 q 352 260 351 256 q 353 267 353 264 q 390 319 358 306 z "},"e":{"ha":694,"x_min":33,"x_max":658,"o":"m 399 543 q 329 550 374 550 q 306 549 310 550 q 276 539 300 546 q 229 512 246 531 q 194 444 213 493 q 179 374 179 403 q 181 347 179 350 q 190 344 182 343 q 257 362 211 346 q 321 389 303 378 q 385 447 342 401 q 435 507 429 493 q 436 515 436 510 q 399 543 436 533 m 201 617 q 283 622 232 622 q 511 606 425 622 q 610 581 581 593 q 650 546 639 568 q 658 522 658 531 q 648 495 658 513 q 626 471 638 478 q 404 353 590 447 q 364 319 389 346 q 329 272 339 292 q 314 219 321 260 q 310 171 310 193 q 329 92 310 131 q 336 78 333 85 q 341 67 339 71 q 342 63 343 63 q 308 85 336 63 q 264 125 279 108 q 208 246 213 185 q 203 282 206 282 q 182 275 199 282 l 167 268 l 169 224 q 193 81 178 108 q 231 28 203 64 q 268 -15 258 -7 q 318 -44 303 -40 q 326 -51 326 -47 q 411 -90 326 -57 q 521 -103 444 -103 q 596 -106 596 -103 l 557 -124 q 449 -140 514 -140 q 324 -122 378 -140 q 242 -83 260 -99 q 213 -64 222 -68 q 181 -41 197 -56 q 157 -21 165 -26 q 99 45 138 -6 q 49 125 61 96 q 33 293 33 165 l 33 315 q 53 459 35 389 q 100 561 72 529 q 201 617 136 603 z "},"f":{"ha":732,"x_min":33,"x_max":696,"o":"m 400 922 q 464 928 421 928 q 561 917 531 928 q 637 864 601 900 q 686 788 672 828 q 696 725 696 760 q 656 604 696 644 q 563 556 613 564 q 538 554 554 554 q 467 568 478 554 q 460 581 460 578 q 472 586 460 586 q 479 585 474 586 q 488 585 485 585 q 504 583 493 583 q 569 606 539 583 q 610 686 610 633 q 607 717 610 706 q 567 790 599 761 q 489 818 536 818 q 460 815 479 818 q 378 781 403 806 q 321 681 353 756 q 282 528 293 611 l 279 501 l 294 501 q 357 496 304 501 q 465 492 396 492 q 525 488 525 492 q 504 464 525 482 q 390 401 474 438 q 275 364 306 364 q 267 354 267 364 q 261 263 267 351 q 258 140 258 233 q 264 -35 258 7 q 292 -111 274 -86 q 294 -139 308 -135 q 126 -142 283 -142 l 63 -142 q 33 -132 33 -142 q 43 -102 33 -125 q 58 -72 53 -79 q 97 157 82 -43 q 106 360 100 182 q 125 596 111 519 q 175 746 139 672 q 400 922 244 882 m 436 736 q 451 749 446 747 q 471 750 456 751 q 502 740 493 747 q 522 713 511 732 q 533 679 533 690 q 524 658 533 668 q 481 640 507 640 q 433 661 450 640 q 422 693 422 672 q 436 736 422 718 z "},"g":{"ha":663,"x_min":33,"x_max":628,"o":"m 222 579 q 319 581 251 581 q 453 578 410 581 q 525 571 519 575 q 543 568 528 568 q 575 554 560 568 q 592 538 592 540 q 601 510 592 532 q 624 394 617 476 q 628 318 628 350 q 617 107 628 292 q 596 -57 608 -22 q 588 -87 588 -79 q 581 -103 588 -94 q 572 -118 574 -112 q 510 -212 561 -158 q 448 -257 478 -244 q 358 -274 418 -269 l 339 -274 q 226 -253 251 -274 q 207 -240 217 -246 q 160 -206 200 -237 q 118 -169 121 -175 q 119 -164 115 -164 q 149 -178 124 -165 q 292 -207 206 -207 q 345 -205 333 -207 q 378 -193 357 -203 q 419 -165 399 -183 q 440 -139 440 -146 q 446 -131 440 -133 q 464 -104 453 -126 q 479 -64 475 -82 q 494 -8 483 -43 q 510 103 504 21 q 514 185 514 167 q 504 404 514 317 q 472 485 499 464 q 429 501 468 489 q 332 513 392 513 q 233 501 265 513 q 188 450 200 489 q 175 422 181 426 q 164 356 164 408 q 165 347 164 353 q 165 339 165 342 q 192 247 169 282 q 204 222 197 236 q 218 197 211 207 q 236 174 225 186 q 267 139 264 142 q 281 126 276 126 q 301 111 286 126 q 390 49 336 76 q 474 22 443 22 q 482 11 493 22 q 469 3 478 7 q 411 -4 456 -4 q 354 1 376 -4 q 199 85 260 31 q 80 226 126 149 q 33 360 33 304 q 53 463 33 403 q 94 546 72 522 q 222 579 121 575 m 333 360 q 365 368 350 368 q 408 343 393 368 q 422 281 422 318 q 407 244 422 260 q 381 231 393 231 l 368 231 q 317 254 336 232 q 297 304 297 276 q 333 360 297 343 z "},"h":{"ha":779,"x_min":33,"x_max":743,"o":"m 131 999 l 200 999 q 304 993 299 999 q 297 981 310 988 q 231 907 251 950 q 211 832 217 881 q 204 557 204 769 q 206 457 204 483 l 207 400 l 233 425 q 371 515 285 474 q 497 554 432 546 q 543 557 528 557 q 700 494 646 557 q 728 452 721 469 q 740 399 735 435 q 743 360 743 383 q 725 275 743 329 q 703 208 710 236 q 626 69 681 149 q 524 -42 603 29 q 425 -114 444 -114 q 419 -108 419 -114 q 440 -69 419 -100 q 493 24 465 -32 q 524 85 515 72 q 575 271 561 157 q 576 301 576 282 q 522 413 576 367 q 467 433 497 433 q 425 425 446 433 q 307 362 351 397 q 228 267 263 326 q 211 192 211 239 q 215 76 211 160 l 221 -25 l 242 -68 q 267 -119 264 -115 l 267 -121 l 268 -122 q 226 -126 268 -126 l 153 -126 q 33 -119 33 -125 q 42 -104 33 -115 q 89 6 71 -67 q 97 69 96 33 q 99 267 99 104 q 89 750 99 642 q 75 875 81 846 q 53 942 69 904 q 36 990 36 978 q 131 999 36 999 m 354 285 q 390 290 368 293 q 428 272 413 289 q 443 226 443 256 q 414 160 443 178 q 385 151 400 151 q 317 197 336 151 q 310 232 308 218 q 325 261 311 244 q 354 285 339 278 z "},"i":{"ha":336,"x_min":33,"x_max":300,"o":"m 161 796 q 194 806 179 806 q 222 799 210 806 q 275 722 275 772 q 263 682 275 700 q 197 643 238 643 q 142 661 167 643 q 110 707 117 679 q 107 729 107 715 q 161 796 107 767 m 103 571 q 115 582 114 583 q 210 579 118 579 l 300 579 l 283 556 q 226 447 243 501 q 215 249 217 414 q 215 195 215 228 q 214 150 214 163 q 220 25 214 60 q 247 -49 226 -10 q 283 -108 271 -96 l 297 -122 l 274 -125 q 140 -129 261 -126 l 33 -132 l 49 -104 q 101 58 88 -35 q 104 172 104 86 q 97 497 104 347 q 96 542 96 518 q 103 571 96 563 z "},"j":{"ha":618,"x_min":33,"x_max":582,"o":"m 442 771 q 464 776 451 776 q 517 753 492 776 q 546 699 542 731 q 547 693 546 697 q 547 686 547 689 q 490 614 547 633 q 472 611 479 611 q 417 638 443 611 q 401 665 401 653 l 401 679 q 442 771 407 753 m 439 561 q 533 567 517 567 q 578 561 567 567 q 582 556 582 558 q 561 524 582 550 q 535 483 540 499 q 528 413 531 468 q 504 90 513 156 q 485 9 501 65 q 457 -74 468 -47 q 419 -137 446 -100 q 371 -193 393 -174 q 340 -218 343 -218 q 317 -231 333 -218 q 197 -274 269 -262 q 139 -276 164 -276 q 47 -268 68 -276 l 33 -262 l 51 -260 q 89 -256 81 -256 q 138 -245 104 -256 q 188 -224 171 -235 q 260 -147 224 -203 q 276 -124 267 -137 q 290 -105 286 -111 q 301 -85 294 -99 q 317 -53 308 -72 q 368 81 360 43 q 383 408 383 157 q 381 506 383 489 q 378 532 378 528 q 389 553 378 549 q 439 561 400 558 z "},"k":{"ha":710,"x_min":33,"x_max":676,"o":"m 50 943 q 96 944 50 944 q 271 940 267 944 q 242 871 247 888 l 231 832 l 228 619 q 227 543 228 586 q 226 488 226 500 q 233 406 226 408 l 235 406 q 446 604 246 406 l 481 639 l 507 639 q 588 644 526 639 q 635 649 618 649 q 671 632 664 649 q 674 624 676 628 q 669 619 671 619 q 658 614 668 618 q 515 543 563 572 q 442 480 493 529 q 390 424 390 431 q 500 293 390 417 q 535 253 513 279 q 563 221 557 228 q 675 11 675 94 q 672 -10 675 4 q 627 -84 664 -47 q 549 -131 590 -121 q 479 -140 506 -140 q 447 -135 458 -140 q 419 -117 433 -129 q 404 -100 404 -106 q 449 -96 404 -99 q 492 -92 482 -94 q 519 -76 501 -90 q 554 -44 549 -56 q 563 -6 563 -32 q 557 36 563 18 q 530 92 551 53 q 493 150 508 131 q 382 278 428 229 q 335 331 363 297 l 324 346 l 308 331 q 251 263 300 322 l 236 246 l 236 149 q 244 -13 236 39 q 271 -94 251 -65 q 282 -121 282 -110 q 222 -137 282 -137 q 107 -142 219 -137 q 56 -144 68 -144 q 33 -137 33 -144 q 42 -125 33 -133 q 78 -60 68 -96 q 90 47 81 -47 q 97 222 97 121 l 97 344 q 82 792 96 571 q 64 900 76 861 q 58 920 61 910 q 53 936 54 931 l 50 943 z "},"l":{"ha":358,"x_min":33,"x_max":324,"o":"m 89 963 q 190 965 169 965 q 272 957 264 965 q 276 949 278 951 q 264 940 275 947 q 215 839 229 921 q 207 674 207 785 q 211 448 207 600 q 215 244 215 296 q 221 108 215 144 q 225 67 222 100 q 231 17 228 33 q 249 -61 236 -42 q 286 -105 258 -78 q 321 -132 314 -132 q 319 -137 322 -133 q 196 -142 311 -142 q 35 -136 40 -142 q 33 -133 33 -135 q 67 -92 33 -126 q 100 -54 94 -62 q 110 -24 106 -46 q 124 213 124 67 q 123 251 124 225 q 122 292 122 278 q 96 879 110 825 q 64 928 89 907 q 38 956 38 951 q 89 963 38 961 z "},"m":{"ha":1079,"x_min":33,"x_max":1044,"o":"m 225 639 q 231 582 225 629 q 238 526 238 535 q 240 513 238 513 q 265 535 246 513 q 329 577 290 561 q 404 593 368 593 q 513 568 454 593 q 596 496 561 546 l 608 476 l 626 496 q 679 539 656 528 q 715 561 704 553 q 811 579 731 574 l 824 579 q 931 547 892 579 q 950 535 949 535 q 981 508 954 535 q 1044 361 1044 444 q 1042 333 1044 350 q 997 210 1036 294 q 982 172 982 176 q 975 163 982 167 q 961 142 969 158 q 919 88 951 121 q 874 35 882 47 q 786 -38 858 17 q 703 -93 714 -93 l 701 -93 q 731 -59 700 -92 q 801 18 763 -26 q 851 85 839 63 q 935 296 915 197 q 942 351 942 333 q 913 425 942 394 q 831 454 885 454 q 760 438 794 454 q 681 369 713 414 q 610 221 649 324 q 575 140 586 158 q 563 119 571 135 q 551 97 556 103 q 529 63 531 64 q 474 -8 482 8 q 454 -39 471 -15 q 403 -108 433 -65 q 369 -144 376 -144 q 364 -142 367 -144 q 363 -136 363 -140 q 411 -35 363 -108 q 494 128 460 36 q 533 272 515 178 q 540 325 540 307 q 535 361 540 339 q 517 413 528 393 q 494 440 508 426 q 472 453 479 453 q 439 465 464 453 q 396 475 418 475 q 333 458 369 475 q 275 415 306 446 q 236 361 244 383 q 217 158 217 308 q 217 121 217 147 q 218 81 218 94 q 225 -79 221 -64 q 250 -124 229 -96 q 269 -154 269 -150 q 263 -161 269 -158 q 251 -161 256 -164 q 203 -160 249 -160 q 96 -151 165 -160 l 33 -143 l 44 -133 q 87 -53 78 -101 q 96 144 96 -4 q 93 432 96 276 q 89 558 90 538 q 81 588 88 578 q 33 651 33 649 q 129 656 33 656 l 225 656 l 225 639 m 743 358 q 765 363 751 363 q 800 356 783 363 q 828 330 814 349 q 843 296 843 311 q 828 256 843 276 q 799 235 813 235 q 729 278 754 235 q 719 315 719 293 q 743 358 719 350 m 364 351 q 386 357 376 357 q 410 349 392 357 q 442 283 442 333 q 428 239 442 253 q 404 226 415 226 q 388 228 394 226 q 318 290 329 233 q 317 294 318 292 q 317 299 317 297 q 364 351 317 335 z "},"n":{"ha":786,"x_min":33,"x_max":750,"o":"m 33 650 q 94 660 33 660 l 197 656 q 212 649 210 653 q 217 625 214 646 q 219 550 219 594 q 221 503 219 503 q 258 538 239 518 q 364 613 318 596 q 513 640 444 640 q 563 633 533 640 q 594 621 592 626 q 604 617 597 617 q 644 595 618 617 q 688 549 669 574 q 710 510 710 517 q 714 500 710 504 q 733 447 719 494 q 749 381 746 399 q 749 372 749 378 q 750 363 750 367 q 737 267 750 322 q 706 176 724 213 q 660 97 675 118 q 639 64 646 78 q 624 43 631 47 q 601 17 618 40 q 511 -87 567 -33 q 440 -142 456 -142 q 442 -125 433 -142 l 447 -115 q 456 -100 450 -110 q 466 -83 461 -90 q 474 -71 471 -75 q 574 137 528 8 q 621 342 619 265 l 621 356 q 601 428 621 381 q 550 504 578 483 q 469 525 522 525 l 457 525 q 349 485 406 524 q 249 381 293 446 l 232 358 l 231 264 q 226 168 229 199 q 221 83 222 138 q 220 60 221 75 q 219 38 219 44 q 251 -112 219 -83 q 260 -125 260 -119 q 226 -140 260 -140 q 210 -139 215 -140 q 121 -136 182 -136 q 53 -126 53 -136 q 63 -104 53 -121 q 83 -51 72 -90 q 93 1 92 -26 q 94 153 94 28 q 78 560 94 514 q 51 613 74 572 q 33 650 33 642 m 365 349 q 421 394 392 394 q 474 369 453 394 q 496 311 496 343 q 468 258 496 276 q 428 249 449 249 q 390 258 406 249 q 374 267 381 267 q 354 307 363 267 q 353 311 354 308 q 353 315 353 314 q 365 349 353 325 z "},"o":{"ha":629,"x_min":32,"x_max":596,"o":"m 419 414 q 386 483 419 424 q 376 497 378 497 q 357 446 374 497 q 321 294 346 428 q 306 246 311 246 q 282 357 296 246 q 258 483 267 475 l 257 485 q 214 419 251 485 q 171 229 175 351 l 171 207 q 183 117 171 150 q 226 51 194 83 q 276 10 260 19 q 313 0 292 0 q 385 27 360 0 q 439 132 411 54 q 450 231 450 165 q 429 386 450 338 q 419 414 419 406 m 285 628 q 295 629 289 628 q 305 631 301 631 q 310 632 308 632 l 311 632 q 347 621 321 632 q 383 601 372 610 q 403 589 399 589 q 435 559 408 589 q 479 503 461 529 q 550 358 526 431 q 593 201 589 233 q 596 164 596 179 q 558 -15 596 60 q 519 -72 540 -51 q 458 -114 499 -93 q 374 -144 413 -139 q 325 -147 360 -147 q 208 -128 235 -147 q 181 -112 203 -122 q 75 -12 114 -81 q 32 181 32 61 q 49 301 32 247 q 97 423 65 354 q 151 522 129 492 q 285 628 224 617 m 278 171 q 300 176 288 176 q 357 144 342 176 q 364 115 364 128 q 351 82 364 94 q 307 65 335 65 q 258 88 272 65 q 251 118 251 100 q 278 171 251 156 z "},"p":{"ha":739,"x_min":32,"x_max":704,"o":"m 44 671 l 78 671 l 271 671 q 493 667 453 671 q 574 644 533 664 q 670 567 642 613 q 703 444 699 522 q 703 428 703 439 q 704 414 704 418 q 682 317 704 371 q 622 210 660 258 q 574 146 594 174 q 439 25 536 93 q 406 0 411 6 q 379 -18 396 -10 q 358 -32 358 -28 q 313 -58 358 -39 q 253 -76 268 -76 l 250 -75 q 279 -44 249 -72 q 504 246 440 96 q 522 382 522 288 q 500 526 522 490 q 471 556 493 539 q 438 576 449 574 q 407 578 432 578 q 303 569 317 578 q 258 506 283 560 q 233 364 236 461 q 221 -47 221 61 l 219 -211 l 238 -244 l 253 -278 l 33 -278 l 47 -267 q 92 -211 83 -239 q 100 -189 96 -199 q 113 89 113 -172 q 111 324 113 303 q 107 429 111 325 q 99 556 103 533 q 80 606 96 575 q 50 649 64 638 q 44 671 32 667 m 356 474 q 379 478 369 478 q 436 443 400 478 q 454 406 454 425 q 425 338 454 371 q 394 319 408 319 l 386 319 q 336 345 356 322 q 317 403 317 368 q 356 474 317 463 z "},"q":{"ha":758,"x_min":33,"x_max":725,"o":"m 193 633 q 454 678 311 678 q 543 674 500 678 q 621 669 589 669 q 681 664 642 669 q 719 649 714 660 q 711 621 725 638 q 679 542 692 596 q 663 276 663 464 l 663 185 q 667 -48 663 58 q 676 -210 672 -154 q 681 -272 681 -267 q 600 -278 681 -278 l 515 -278 l 522 -261 q 536 167 536 -231 l 536 300 q 536 411 536 379 q 529 468 536 443 q 519 496 522 493 q 496 518 515 499 q 397 558 454 558 l 381 558 q 317 545 342 557 q 261 503 293 533 q 204 382 214 457 q 203 344 203 371 q 219 229 203 258 q 228 207 228 213 q 244 165 228 200 q 261 126 260 131 q 279 94 264 115 l 313 50 q 383 -26 326 29 q 465 -100 439 -82 q 483 -119 483 -112 q 468 -125 483 -125 q 386 -107 433 -125 q 294 -68 318 -85 q 270 -51 288 -62 q 246 -35 253 -39 q 171 33 222 -18 q 99 113 119 85 q 47 199 61 160 q 33 294 33 238 l 33 324 q 53 438 35 382 q 92 534 75 503 q 136 592 108 565 q 193 633 169 624 m 310 413 q 326 456 310 439 q 369 472 343 472 q 401 465 383 472 q 435 411 435 451 l 435 400 q 422 356 432 368 q 386 340 413 344 l 376 340 q 329 361 349 340 q 310 413 310 382 m 335 232 q 376 268 344 268 q 418 240 403 268 q 426 210 426 225 q 415 174 426 189 q 385 160 403 160 q 349 179 365 160 q 333 219 333 199 q 335 232 333 228 z "},"r":{"ha":681,"x_min":32,"x_max":644,"o":"m 254 -106 q 274 -126 254 -111 l 250 -150 l 156 -147 q 33 -133 40 -146 q 50 -111 32 -129 q 76 -76 69 -92 q 85 158 85 -60 l 85 415 l 85 596 l 65 628 q 39 664 42 663 l 68 669 l 74 669 q 192 674 140 674 l 222 674 q 267 668 267 674 q 258 661 267 665 q 219 589 231 646 q 215 553 214 554 q 239 571 217 551 q 294 608 258 588 q 342 629 329 629 q 357 633 353 629 q 411 640 361 638 q 444 642 426 642 q 494 629 465 642 q 643 436 633 571 q 644 417 644 428 q 633 367 644 399 q 606 315 621 331 q 561 288 592 300 q 494 274 528 274 q 396 338 425 274 q 385 383 385 360 q 399 425 385 410 l 413 439 l 411 408 q 424 367 411 376 q 468 349 442 349 q 519 366 496 349 q 549 408 543 383 q 550 422 550 413 q 536 485 550 461 q 453 522 518 515 q 444 523 450 522 q 436 524 439 524 q 336 489 378 524 q 265 415 281 443 l 258 401 q 244 379 250 388 q 221 315 225 347 q 215 164 217 283 l 215 111 q 222 -51 215 -8 q 246 -99 228 -93 q 254 -106 254 -101 m 310 332 q 316 338 313 336 q 321 335 319 339 q 322 325 322 332 q 363 256 322 288 q 450 224 404 224 q 457 224 453 224 q 463 225 461 225 q 528 249 492 228 q 536 246 536 249 q 499 210 536 239 q 438 168 463 181 q 386 154 406 154 q 343 168 367 154 q 307 207 322 182 q 292 251 292 232 q 292 255 292 253 q 293 258 293 257 q 297 279 294 261 q 303 313 300 297 q 310 332 307 329 z "},"s":{"ha":626,"x_min":33,"x_max":590,"o":"m 263 667 q 278 667 264 667 q 304 668 292 668 q 504 663 482 668 q 533 643 525 658 q 544 588 542 628 q 553 526 547 547 q 556 511 556 513 q 551 504 556 504 q 519 522 543 504 q 475 553 493 543 q 461 565 461 563 q 454 569 461 569 q 421 582 446 569 q 353 594 392 594 q 305 588 318 594 q 292 567 292 582 q 310 528 292 551 q 390 443 329 504 q 531 293 506 328 q 579 190 557 258 q 590 121 590 158 q 579 56 590 83 q 494 -82 546 -35 q 360 -146 443 -129 q 289 -153 318 -153 q 110 -82 186 -153 q 38 33 60 -35 q 33 69 33 46 q 46 150 33 119 q 119 233 65 207 q 181 250 153 250 q 235 235 207 250 q 274 208 256 224 q 292 182 292 192 q 279 181 292 172 q 274 185 278 182 q 210 203 247 203 q 115 167 154 203 q 85 86 89 142 q 84 74 85 82 q 83 64 83 67 q 124 -28 83 13 q 178 -68 153 -57 q 225 -78 197 -78 l 251 -78 q 303 -74 299 -78 q 319 -67 307 -69 q 358 -44 332 -62 q 390 -18 385 -26 q 414 21 394 -12 l 431 53 l 429 110 q 401 246 429 194 q 337 325 385 278 q 240 403 289 372 q 128 486 153 461 l 103 511 q 92 529 92 522 q 83 546 92 538 q 72 576 72 557 q 75 599 72 582 q 96 632 79 619 q 137 653 118 650 q 263 667 156 657 m 221 100 q 244 104 233 104 q 296 68 276 104 q 301 28 307 46 q 282 -2 296 10 q 253 -14 268 -14 q 193 18 215 -14 q 185 49 185 32 q 221 100 185 89 z "},"t":{"ha":785,"x_min":33,"x_max":750,"o":"m 240 868 l 243 975 l 414 975 q 417 958 417 961 q 397 917 417 950 q 342 760 353 843 q 332 703 336 722 q 330 685 331 694 q 331 676 329 676 q 407 675 332 675 q 585 678 549 675 q 592 678 588 678 q 599 679 597 679 q 617 671 617 679 q 568 632 617 656 q 532 611 538 617 q 376 583 503 586 l 326 583 q 325 557 325 575 q 324 529 325 539 l 365 526 q 392 525 374 525 q 490 531 413 525 q 568 535 540 535 l 575 535 q 569 508 588 526 q 531 488 564 504 q 493 467 499 472 q 365 432 457 435 l 326 432 l 326 414 q 338 171 333 233 q 340 108 340 118 l 340 101 q 346 78 339 100 q 356 54 353 57 q 358 39 358 51 q 440 -60 358 -7 q 518 -83 474 -83 q 572 -76 546 -83 q 629 -57 613 -67 q 668 -24 647 -47 q 697 17 689 -1 q 704 58 704 31 q 672 163 704 128 q 633 199 657 179 q 599 219 608 218 q 591 222 593 221 q 590 226 589 224 q 607 231 592 231 q 646 225 624 231 q 692 197 667 218 q 726 157 718 176 q 750 44 750 110 q 739 -32 750 -7 q 596 -168 700 -128 q 500 -185 554 -185 q 403 -169 451 -185 q 349 -140 382 -162 q 299 -100 315 -118 q 228 18 251 -51 q 208 183 208 76 q 211 368 208 204 l 214 588 q 171 590 214 590 q 93 581 131 590 q 43 571 60 571 q 33 576 33 571 q 73 629 33 592 q 126 669 113 667 q 208 676 168 676 l 224 676 l 231 718 q 240 868 239 761 m 486 101 q 513 103 493 106 q 556 53 542 99 q 561 28 561 31 q 549 1 561 17 q 513 -7 540 -8 q 478 1 489 -4 q 458 25 468 7 q 454 58 449 43 q 486 101 464 92 z "},"u":{"ha":688,"x_min":32,"x_max":651,"o":"m 469 633 q 488 635 482 633 q 528 636 493 636 q 651 632 651 636 q 638 596 651 629 q 619 554 625 563 q 607 476 613 543 q 603 374 603 435 q 606 161 603 364 q 608 36 607 108 q 610 -74 610 -36 q 611 -121 611 -112 l 614 -154 l 565 -151 q 451 -132 521 -149 q 343 -97 382 -115 q 266 -53 313 -83 q 200 -3 219 -22 q 78 172 133 63 q 32 403 33 258 l 32 442 q 43 532 32 483 q 65 596 51 567 q 83 625 78 625 q 86 617 86 625 q 81 546 86 603 q 78 492 78 510 q 78 476 78 486 q 79 465 79 467 q 140 256 97 343 q 239 128 165 204 q 305 72 278 88 q 379 43 332 56 q 417 36 407 36 q 457 57 432 36 q 494 164 490 86 l 497 206 l 468 190 q 426 176 440 176 q 394 182 413 176 q 263 275 321 201 q 211 383 225 321 q 207 429 207 404 q 215 499 207 467 q 235 531 224 531 q 242 514 242 531 q 286 365 242 432 q 369 299 315 322 q 404 289 393 289 q 453 306 424 289 q 490 335 481 321 q 503 381 500 350 q 506 443 506 414 q 500 535 506 496 q 465 614 493 575 q 457 629 457 624 q 467 633 457 633 l 469 633 z "},"v":{"ha":810,"x_min":33,"x_max":775,"o":"m 33 657 q 38 661 33 661 q 90 633 47 661 q 150 588 128 610 q 274 424 231 504 q 383 150 338 306 q 397 139 388 139 q 408 146 404 139 q 424 181 413 153 q 522 375 443 235 q 568 449 554 432 q 590 479 574 457 q 613 510 607 501 q 658 563 632 539 q 725 616 681 582 q 774 650 769 650 q 771 642 775 650 q 758 622 767 635 q 740 597 750 610 q 608 382 701 543 q 561 278 597 364 q 496 103 522 188 q 492 90 493 96 q 489 81 490 85 q 487 71 488 76 q 485 62 486 65 q 484 51 485 58 q 483 40 483 43 q 483 25 483 36 q 483 9 483 14 q 482 -12 482 4 q 482 -36 482 -28 q 479 -117 481 -104 q 471 -136 478 -131 q 397 -143 460 -143 q 326 -136 333 -143 q 315 -62 318 -126 q 283 146 313 -4 q 246 296 254 286 q 232 331 239 307 q 179 456 218 381 q 113 563 140 531 q 97 581 110 565 q 76 606 85 596 q 43 644 46 643 q 33 657 33 654 z "},"w":{"ha":1151,"x_min":26,"x_max":1115,"o":"m 1081 664 q 1108 688 1101 688 l 1111 688 q 1115 686 1115 688 q 1083 635 1115 682 q 1040 565 1053 590 q 1011 513 1022 529 q 945 383 989 478 q 869 207 901 289 q 851 149 860 181 q 839 97 843 118 q 827 33 835 75 q 815 -32 819 -10 q 806 -99 806 -87 q 808 -121 806 -107 l 750 -131 q 650 -143 669 -143 q 631 -137 635 -143 q 624 -72 626 -131 q 597 40 619 -8 q 568 71 589 63 q 544 75 556 75 q 476 14 506 75 q 462 -25 464 -12 q 458 -79 460 -37 q 458 -99 458 -89 q 458 -115 458 -108 q 458 -128 458 -122 q 457 -139 457 -135 l 457 -142 q 401 -146 457 -146 q 324 -143 379 -146 l 275 -140 l 275 -75 q 274 -17 275 -44 q 268 41 272 10 q 263 88 264 72 q 253 140 261 103 q 243 185 244 178 q 231 239 242 192 q 218 289 219 286 q 117 535 188 418 q 93 573 107 550 q 68 614 79 596 q 46 647 57 632 q 36 674 26 671 q 93 640 47 674 q 161 581 139 606 q 272 356 225 507 q 303 263 292 289 q 338 214 315 238 q 396 178 369 178 q 415 181 401 178 q 468 210 451 188 q 496 288 485 233 q 514 392 510 353 q 522 417 517 413 q 547 425 526 422 l 571 429 l 574 411 q 635 229 594 285 q 708 200 656 200 q 733 203 726 200 q 763 228 740 207 q 865 371 811 272 q 967 521 908 447 l 1008 575 q 1081 664 1033 611 z "},"x":{"ha":564,"x_min":32,"x_max":528,"o":"m 469 607 q 524 636 517 636 q 528 629 528 636 q 512 604 528 624 q 486 579 496 585 q 396 470 464 565 q 328 347 328 375 q 353 304 328 339 q 475 46 432 183 q 522 -119 522 -97 q 519 -131 522 -125 q 451 -137 514 -136 l 417 -137 q 387 -134 392 -137 q 382 -118 382 -131 q 378 -101 382 -108 q 367 -46 375 -97 q 318 147 353 38 q 286 221 293 221 l 283 218 q 247 135 263 185 q 217 -15 236 103 q 210 -52 215 -22 q 203 -93 206 -82 q 196 -136 196 -125 q 194 -142 196 -140 q 185 -144 193 -143 q 163 -146 176 -146 q 121 -146 149 -146 q 39 -137 46 -146 q 33 -131 35 -133 q 33 -128 32 -129 q 40 -124 35 -126 q 49 -112 49 -118 q 77 -1 49 -101 q 114 114 106 99 q 165 225 125 135 q 228 347 206 315 q 229 354 229 349 q 200 421 229 368 q 179 460 181 457 q 128 526 171 472 q 81 583 104 557 q 58 613 58 608 q 61 615 58 615 q 115 585 72 615 q 197 519 158 556 q 257 454 233 486 l 281 422 l 292 438 q 378 541 349 513 q 469 607 408 569 z "},"y":{"ha":739,"x_min":33,"x_max":703,"o":"m 647 646 q 666 649 656 647 q 682 651 676 650 q 692 651 688 651 q 703 646 703 651 q 701 638 703 644 q 696 621 699 632 q 690 603 693 610 q 654 349 661 510 q 639 168 654 339 q 630 90 636 131 q 619 26 624 49 q 605 -39 614 3 q 593 -93 596 -81 q 531 -215 579 -154 q 506 -242 510 -242 q 476 -252 500 -242 q 447 -262 453 -262 q 417 -272 431 -265 q 379 -278 406 -278 q 343 -276 358 -278 l 286 -274 l 247 -253 q 207 -232 208 -232 q 177 -206 201 -232 q 150 -174 153 -181 q 154 -164 147 -164 q 168 -171 158 -164 q 213 -189 179 -179 q 294 -200 244 -200 q 410 -172 383 -200 q 425 -151 425 -154 q 439 -129 425 -146 q 470 -74 454 -110 q 486 -24 486 -37 q 483 -18 486 -18 q 449 -33 479 -18 q 369 -53 418 -50 q 317 -56 331 -56 l 306 -56 q 253 -46 285 -53 q 218 -35 222 -39 q 192 -18 211 -28 q 90 69 124 18 q 40 208 56 121 q 33 281 33 250 q 68 422 33 358 q 171 568 124 524 q 261 642 249 642 q 260 634 263 642 q 254 617 257 626 l 251 608 q 232 574 251 600 q 181 456 197 522 q 167 336 167 404 q 182 243 167 267 q 188 225 188 236 q 206 190 188 217 q 239 150 225 163 q 269 125 268 126 q 296 107 279 119 q 407 83 326 83 q 443 88 428 83 q 495 115 482 97 q 513 178 508 132 q 514 198 513 185 q 517 228 515 211 q 521 256 519 246 q 525 471 525 294 q 522 632 525 607 l 519 647 l 568 644 q 585 644 574 644 q 604 643 597 643 q 647 646 628 643 m 354 350 q 408 325 388 350 q 429 265 429 300 q 396 213 429 228 q 367 206 378 206 q 326 225 346 206 q 301 276 301 249 q 302 285 301 279 q 303 296 303 292 q 318 338 304 324 q 354 350 329 350 z "},"z":{"ha":736,"x_min":33,"x_max":700,"o":"m 126 651 q 300 654 176 654 q 611 647 593 654 q 625 633 625 642 q 599 583 625 622 q 550 506 583 560 q 531 472 546 500 q 507 432 515 444 q 433 314 482 394 q 381 228 385 233 q 319 128 356 182 q 304 103 304 104 q 292 75 304 100 q 268 -1 268 24 q 275 -33 268 -15 q 291 -54 282 -47 q 331 -71 300 -61 q 385 -82 361 -82 q 507 -64 415 -82 q 661 35 576 -50 q 697 65 692 65 q 700 42 700 65 q 696 -10 700 15 q 688 -93 690 -46 q 683 -141 685 -132 q 674 -156 682 -150 q 439 -164 660 -164 l 315 -164 q 33 -157 33 -164 q 168 63 33 -140 q 190 97 190 94 q 199 113 190 101 q 265 218 235 176 q 315 306 274 228 q 365 407 357 385 q 396 521 396 481 q 378 578 396 550 q 326 589 371 589 q 283 585 304 589 q 194 556 218 572 q 136 514 150 526 q 103 476 122 501 q 81 460 90 460 q 72 492 72 460 q 74 551 72 525 q 78 646 76 644 l 126 651 m 451 126 q 471 129 465 129 q 525 110 513 129 q 549 57 549 68 q 544 46 549 53 q 519 21 536 31 q 474 7 500 7 q 439 18 450 7 q 414 79 414 43 q 451 126 414 118 z "},"{":{"ha":551,"x_min":36,"x_max":517,"o":"m 325 993 q 374 1001 353 1001 q 415 997 390 1001 q 492 950 456 992 q 517 893 517 921 q 511 863 517 878 q 461 813 494 813 q 418 838 439 813 q 413 856 403 856 l 419 851 q 436 846 425 846 q 463 856 456 846 q 469 876 469 865 q 456 910 469 893 q 418 926 442 925 q 386 922 392 931 q 376 915 382 915 q 354 897 371 915 q 329 863 338 879 q 303 672 307 818 q 293 560 301 588 q 253 503 285 533 q 199 461 224 474 q 172 444 172 447 q 194 428 172 440 q 256 360 226 408 q 285 274 278 322 q 293 96 292 225 q 311 -39 296 -15 q 335 -58 318 -49 q 363 -68 353 -68 q 389 -60 374 -68 q 408 -44 404 -53 q 417 -19 417 -28 q 408 -1 417 -11 q 376 11 397 11 q 356 22 356 11 q 401 46 356 46 q 439 32 422 46 q 463 8 458 17 q 468 -17 468 0 q 453 -64 468 -35 q 421 -108 439 -93 q 336 -135 396 -129 l 321 -135 q 186 -47 224 -135 q 175 85 176 -28 q 169 210 174 172 q 146 306 164 247 q 53 425 122 385 q 36 439 36 435 q 44 449 36 443 q 58 456 53 456 q 89 468 65 456 q 122 489 113 481 q 162 563 150 514 q 179 726 174 613 q 199 868 186 835 q 254 958 217 917 q 325 993 274 978 z "},"|":{"ha":260,"x_min":36,"x_max":224,"o":"m 36 964 q 125 969 36 967 q 214 968 214 969 q 190 925 214 954 q 168 833 168 896 l 168 815 q 178 559 168 763 q 189 285 188 356 q 197 42 190 211 q 215 -104 203 -85 q 222 -146 224 -121 l 144 -146 q 101 -146 115 -146 q 78 -144 86 -146 q 69 -142 71 -143 q 68 -136 68 -140 q 75 -112 68 -126 q 83 82 83 -97 q 72 535 83 439 q 68 697 68 564 q 49 932 68 885 q 36 964 36 960 z "},"}":{"ha":514,"x_min":36,"x_max":478,"o":"m 176 1008 q 183 1009 178 1008 q 193 1010 189 1010 q 265 1001 251 1010 q 270 1000 267 1001 q 279 997 274 999 q 289 993 285 994 q 337 959 304 988 q 376 915 369 931 q 388 892 382 900 q 410 747 410 850 q 409 640 410 701 q 408 576 408 579 q 426 516 408 553 q 468 453 444 479 q 478 435 478 443 q 449 399 478 422 q 386 314 397 358 q 376 250 376 274 q 378 220 376 240 q 381 185 381 200 q 380 174 381 182 q 379 161 379 165 q 344 -93 365 -37 q 228 -164 324 -147 q 194 -167 215 -167 q 126 -146 168 -167 q 39 -54 53 -110 q 36 -33 36 -46 q 43 0 36 -19 q 82 57 60 50 q 118 65 107 65 q 147 53 128 65 q 143 39 157 46 q 131 36 138 36 q 100 19 115 36 q 85 -17 85 1 q 108 -76 85 -53 q 135 -87 119 -87 q 172 -78 147 -87 q 229 -15 211 -61 q 242 146 240 13 l 243 281 l 258 328 q 293 393 275 376 q 335 426 321 418 q 365 435 349 435 q 388 440 386 435 q 375 450 389 444 q 275 535 301 481 l 261 563 l 258 699 q 251 838 257 807 q 228 894 246 869 q 203 918 214 911 q 167 925 186 925 q 101 906 121 925 q 90 861 90 892 q 93 843 90 847 q 147 815 101 828 q 171 804 171 810 q 135 792 171 792 q 118 793 122 792 q 65 838 83 801 q 53 889 53 861 q 89 972 53 943 q 176 1008 114 994 z "},"~":{"ha":658,"x_min":32,"x_max":625,"o":"m 525 526 q 549 529 536 529 q 582 524 571 529 q 608 496 590 519 q 625 453 625 474 q 613 395 625 426 q 585 349 600 364 q 549 328 576 340 q 503 311 521 315 q 464 308 483 308 q 406 314 426 308 q 378 318 381 318 q 356 323 365 318 q 336 331 346 328 q 282 346 319 335 q 150 379 172 379 q 100 339 111 379 q 110 315 97 328 q 140 306 122 303 q 159 304 157 308 q 150 288 161 300 q 103 271 135 271 q 67 279 79 271 q 40 313 54 288 q 32 344 32 328 l 32 365 q 46 418 33 401 q 111 464 74 456 q 169 468 129 468 q 204 465 190 468 q 253 450 215 463 q 439 418 346 421 l 457 418 q 535 438 501 418 q 551 460 551 447 q 542 476 551 469 q 521 483 533 483 q 500 476 510 483 q 486 472 493 472 q 478 478 479 471 q 495 506 478 488 q 525 526 513 524 z "}," ":{"ha":347,"x_min":0,"x_max":0,"o":""},"£":{"ha":803,"x_min":36,"x_max":768,"o":"m 475 976 q 544 978 483 978 q 625 964 596 978 q 706 893 678 939 q 731 813 731 851 q 703 715 731 771 q 677 676 689 688 q 636 651 665 665 q 597 638 601 638 q 593 640 593 638 q 615 669 593 647 q 656 731 646 701 q 664 771 664 753 q 647 817 664 794 q 607 850 635 835 q 558 865 579 865 q 458 846 507 865 q 365 699 390 817 q 351 503 351 643 q 356 453 351 457 q 365 451 360 451 q 438 456 389 451 q 489 464 486 461 q 519 475 494 467 q 550 486 544 483 q 566 490 558 492 q 574 481 574 488 q 554 438 574 472 q 524 392 535 403 q 481 365 503 371 q 411 358 458 358 q 357 354 358 358 q 351 315 351 346 q 356 297 351 300 q 371 296 358 296 q 451 302 399 296 q 513 313 504 308 q 524 317 522 318 q 526 308 526 315 q 502 263 526 294 q 458 219 478 231 q 368 201 422 201 l 342 200 l 342 79 q 343 -42 342 -42 q 415 -46 375 -43 q 472 -47 439 -47 q 543 -42 504 -47 q 642 -15 606 -32 q 724 42 678 1 q 765 71 758 71 q 768 10 768 71 l 768 -36 l 767 -140 q 724 -150 746 -150 q 692 -149 706 -150 q 506 -143 597 -143 q 325 -149 414 -143 q 208 -156 249 -156 q 179 -149 183 -156 q 175 -90 175 -142 q 182 43 175 -24 q 186 135 186 76 l 185 185 l 160 186 l 153 186 q 60 165 97 186 q 44 158 50 158 q 38 164 39 157 q 53 213 38 188 q 74 249 65 236 q 102 272 82 261 q 153 286 122 283 l 185 289 q 186 321 186 300 q 188 351 186 342 l 158 349 q 71 324 106 344 q 39 306 40 306 q 36 311 36 306 q 40 326 36 317 q 47 346 43 336 l 67 385 q 108 425 78 408 q 168 442 138 442 q 190 447 190 442 q 193 485 190 453 q 199 560 196 518 q 204 624 203 603 q 303 894 219 803 q 370 953 343 940 q 475 976 397 967 m 485 792 l 494 796 q 522 790 504 796 q 569 738 569 776 q 568 722 569 728 q 544 685 565 703 q 506 665 525 665 q 461 694 482 665 q 451 721 451 706 l 451 736 q 485 792 454 778 z "},"¥":{"ha":886,"x_min":36,"x_max":851,"o":"m 38 947 q 126 951 39 951 q 257 946 251 951 q 261 889 261 942 q 271 811 261 836 q 332 690 299 738 q 360 649 349 668 q 385 611 371 631 q 404 578 404 585 q 407 572 404 572 q 442 607 415 572 q 504 693 504 683 q 550 750 504 697 q 626 858 615 828 q 632 897 632 875 q 625 931 632 922 l 618 942 l 663 944 q 718 946 676 946 q 847 938 839 946 q 849 922 851 933 q 774 869 846 908 q 699 805 743 853 q 619 703 654 757 q 569 633 586 654 q 526 576 531 583 q 493 526 504 539 q 475 450 475 508 q 476 440 475 446 q 476 431 476 433 q 513 426 476 426 q 539 427 519 426 q 572 428 558 428 q 603 428 585 428 q 628 429 622 429 q 671 423 664 429 q 678 393 678 417 l 678 371 l 576 368 q 474 363 476 365 q 475 340 471 360 l 479 321 l 557 319 l 678 319 l 678 260 l 660 261 l 561 261 l 478 260 l 475 149 l 475 100 q 478 7 475 32 q 522 -101 488 -58 q 535 -126 542 -122 q 458 -129 529 -129 q 321 -125 342 -129 q 308 -120 311 -122 q 308 -113 306 -118 q 319 -96 310 -108 q 331 -74 331 -81 q 338 -58 331 -68 q 351 -15 342 -53 q 358 44 358 13 q 351 208 358 65 l 349 264 l 293 264 q 200 258 242 264 q 172 256 175 256 q 154 279 154 256 l 154 289 l 156 313 l 185 315 q 281 322 257 321 l 347 325 q 349 345 347 332 q 350 365 350 358 q 250 363 317 364 q 150 360 183 361 l 146 385 q 144 406 144 394 q 148 415 144 413 q 164 417 151 417 q 258 422 175 417 q 344 428 340 426 q 346 436 346 428 q 342 485 346 451 q 333 538 336 525 q 313 578 329 551 q 147 826 197 769 q 126 851 126 850 q 83 892 126 854 q 36 943 36 933 q 38 947 36 946 z "},"‘":{"ha":206,"x_min":35,"x_max":174,"o":"m 165 968 q 173 975 172 976 q 174 965 174 974 q 168 872 174 956 q 161 729 161 789 l 160 675 l 97 675 l 35 674 l 38 689 q 113 865 47 736 q 165 968 157 957 z "},"’":{"ha":213,"x_min":32,"x_max":178,"o":"m 74 961 q 147 963 106 963 q 178 960 178 963 q 169 935 178 953 q 142 860 158 910 q 99 752 133 836 q 58 647 65 668 l 54 632 l 43 642 l 32 653 l 33 801 q 39 956 36 953 q 74 961 42 958 z "},"“":{"ha":400,"x_min":35,"x_max":368,"o":"m 124 921 q 143 961 136 954 q 153 968 150 968 q 156 850 156 968 q 158 706 156 736 q 154 676 161 678 q 92 672 150 675 l 36 671 q 35 676 36 672 q 35 682 35 681 q 50 729 35 697 q 70 777 61 750 q 83 815 79 804 q 124 921 93 836 m 363 958 q 368 725 368 801 q 367 685 368 686 q 296 679 364 682 l 229 676 l 232 690 q 260 753 235 704 q 304 860 288 814 q 328 914 311 882 q 353 950 344 946 q 363 958 363 953 z "},"”":{"ha":417,"x_min":31,"x_max":382,"o":"m 285 965 q 331 967 303 965 q 360 968 358 968 q 382 967 382 968 q 335 869 382 958 q 269 751 289 781 q 238 697 261 738 q 227 678 229 681 q 219 682 225 676 q 215 704 215 686 q 217 747 215 728 q 221 881 221 843 q 224 960 221 954 q 285 965 225 963 m 33 954 q 97 959 35 954 q 163 964 160 964 q 174 961 174 964 q 153 907 174 957 q 118 821 133 864 q 68 711 118 819 q 46 674 50 674 q 35 683 39 674 q 31 757 31 692 l 31 822 q 31 864 31 843 q 31 900 31 885 q 33 928 32 915 q 33 947 33 940 l 33 954 z "},"€":{"ha":799,"x_min":36,"x_max":764,"o":"m 178 981 q 194 981 179 981 q 222 982 210 982 q 524 974 393 982 q 672 967 579 969 q 758 954 750 964 q 764 875 764 947 q 761 806 764 806 q 742 822 756 806 q 581 901 681 886 q 525 906 556 906 q 385 886 443 906 q 358 864 371 881 q 342 828 346 847 q 329 651 329 775 l 329 638 q 335 601 331 606 q 378 594 339 597 q 538 583 500 583 l 561 583 l 588 583 q 618 582 618 583 q 591 549 618 576 q 554 517 564 522 q 501 511 544 511 q 432 513 463 511 l 322 515 l 322 500 q 319 469 322 486 q 319 457 317 458 q 335 456 321 456 q 378 451 357 456 q 458 446 411 446 q 543 451 501 446 q 583 451 578 457 q 585 449 585 450 q 565 424 585 440 q 515 393 544 407 l 482 376 l 399 381 l 314 383 l 314 343 q 329 231 314 264 q 343 193 332 225 q 360 161 349 175 q 368 146 368 153 q 384 121 368 142 q 407 94 400 100 q 478 38 415 89 q 569 -26 518 3 q 638 -57 589 -37 q 696 -85 696 -81 q 682 -87 696 -87 l 664 -87 q 606 -79 629 -85 q 413 -8 482 -44 q 301 83 344 29 q 207 236 243 157 q 188 299 199 254 q 176 360 176 344 q 167 378 176 378 q 113 363 156 378 q 56 339 69 349 q 43 335 47 335 q 36 344 36 335 q 47 381 36 356 q 76 419 60 407 q 125 442 93 432 q 167 451 160 451 q 176 485 176 451 q 171 524 176 524 l 167 524 q 92 514 118 524 q 60 496 75 508 q 43 483 44 481 q 43 511 40 486 q 81 568 47 544 q 150 596 114 592 l 171 597 l 174 618 q 183 790 178 651 q 184 807 183 796 q 185 824 185 818 q 169 943 185 904 q 165 956 167 950 q 161 966 163 963 q 160 972 160 969 q 178 981 160 979 m 421 792 q 447 821 428 808 q 488 833 467 833 q 525 815 508 833 q 544 772 544 793 q 540 750 544 763 q 485 713 528 713 q 442 729 460 713 q 415 772 415 751 q 421 792 415 778 z "}}}
